<?xml version="1.0" encoding="utf-8" ?>
<svg baseProfile="full" height="300mm" version="1.1" viewBox="0,0,200,300" width="200mm" xmlns="http://www.w3.org/2000/svg" xmlns:ev="http://www.w3.org/2001/xml-events" xmlns:xlink="http://www.w3.org/1999/xlink"><defs /><rect fill="#222222" height="300" width="200" x="0" y="0" /><text fill="#FFFFFF" style="font-size:12px; font-family:Arial; font-weight:bold;" x="10" y="20">“LongRun”</text><text fill="#FFFFFF" style="font-size:4px; font-family:Arial" x="10" y="280">ATHLETE</text><text fill="#FFFFFF" style="font-size:9px; font-family:Arial" x="10" y="290">“96mhy”</text><text fill="#FFFFFF" style="font-size:4px; font-family:Arial" x="120" y="280">STATISTICS</text><text fill="#FFFFFF" style="font-size:3px; font-family:Arial" x="120" y="285">Number: 3</text><text fill="#FFFFFF" style="font-size:3px; font-family:Arial" x="120" y="290">Weekly: 1.0</text><text fill="#FFFFFF" style="font-size:3px; font-family:Arial" x="141" y="285">Total: 31.3 km</text><text fill="#FFFFFF" style="font-size:3px; font-family:Arial" x="141" y="290">Avg: 10.4 km</text><text fill="#FFFFFF" style="font-size:3px; font-family:Arial" x="167" y="285">Min: 10.0 km</text><text fill="#FFFFFF" style="font-size:3px; font-family:Arial" x="167" y="290">Max: 11.2 km</text><polyline fill="none" points="15.113950000959449,102.46049093801412 15.646158229210414,100.08961396335508 15.380054114968516,99.4968919721432 15.941829467192292,99.1830975318444 19.460317198652774,100.57773713086499 21.76655285456218,100.40340751374606 24.959802224650048,89.00204411422601 36.34314488549717,96.11486899541342 42.788777872687206,97.96278289123438 54.14255340991076,99.04363323724829 53.994717790861614,97.7535856278846 44.20799981476739,96.70759725786047 37.25972572318278,94.7550764757907 25.7285474431701,87.64222133517615 25.22590633877553,86.70080217602663 27.56170911854133,76.76343082429958 29.306169422343373,72.54431305683102 31.78980782115832,68.70870311526232 33.44556675362401,68.81331126976875 43.38012034865096,73.52064278261969 46.898608080111444,73.69498706262675 49.11614236480091,73.10221612249734 52.102421868010424,71.25415848719422 66.59031252737623,57.759526917594485 65.9989700516453,56.95750244992087 66.70858102256898,55.144222319708206 54.91129862843081,41.26531438247184 56.09398358024191,39.73092574288603 60.38121653057169,36.557507677032845 64.90498647117056,34.5 65.61459744209424,34.56974623989663 77.05707435077056,50.68071969997254 82.11305251973681,47.01920615552808 89.8300718300743,42.450973284227075 91.10145815322176,43.60175565787358 92.25457598117646,46.07766731941956 94.88604999892414,49.39047685742844 94.73821437987499,50.855076441162964 78.86066890216898,60.89786418163567 69.57659203070216,64.66382821512525 65.64416456606705,66.75601127941627 61.68216997757554,70.20808339095674 59.10983020742424,74.00880652709748 57.12883291312028,80.494339802186 55.23653699015267,96.98652782459976 54.64519451430533,98.24171236262191 54.88173150469083,100.6823348555481 53.16683832462877,115.11649261880666 52.51636160106864,115.5 50.80146842112299,115.22108558661421 50.71276704967022,114.59352726687212" stroke="#4dd2ff" stroke-linecap="round" stroke-linejoin="round" stroke-width="0.5"><title>2022-05-15 10.0km</title></polyline><polyline fill="none" points="104.5,97.28995662168018 107.85593220347073,98.76497405429836 109.99152542382944,98.69302213742048 112.88983050861862,87.6482167733775 113.53050847456325,86.85671814761008 125.30677966109943,94.33990196761442 133.51355932222214,96.46250492997933 143.3677966101095,97.43386105183163 143.27627118641976,95.92286140404758 133.086440677871,94.98747720077517 124.75762711861171,92.18130867442233 113.68305084761232,84.877963272942 115.97118644067086,74.22846042233869 117.46610169496853,70.41470347502036 120.4254237288842,65.88131237015477 121.12711864407174,65.70141461209278 123.56779661017936,66.56492295576027 132.26271186443046,70.95438874102547 136.47288135590497,70.99036772732507 138.70000000006985,70.23480819011456 139.61525423731655,69.15543441966292 135.95423728821333,70.27078725490719 132.0491525422549,70.01893371861661 121.79830508469604,64.80192434956552 121.46271186438389,64.15428984133177 124.97118644078728,58.21758091056836 130.27966101688799,50.80553972994676 142.6966101694852,38.85956928378437 144.0389830507338,39.219393993203994 155.693220339017,52.92842292008572 156.94406779657584,52.244784062728286 158.0118644067552,53.18028951023007 170.0627118643606,45.19242680174648 171.61864406766836,43.71716972521972 175.79830508457962,41.7381559626956 180.25254237279296,38.67965678180917 181.4423728812253,39.65118312599952 185.5,46.0919705600827 185.46949152532034,47.49525392227224 173.11355932196602,55.123253881465644 171.49661016953178,56.56247936756699 158.89661016955506,62.031478924356634 154.56440677959472,64.47810725437012 150.20169491518755,68.90358003153233 147.8525423728861,72.96920593027608 146.51016949152108,79.04956174708786 142.91016949154437,111.32034321821993" stroke="#4dd2ff" stroke-linecap="round" stroke-linejoin="round" stroke-width="0.5"><title>2022-05-07 10.0km</title></polyline><polyline fill="none" points="68.96516469446942,238.41644407663262 71.23660714481957,236.61508312958176 74.37736707623117,232.75499063971802 75.7514495459618,230.43891333701322 76.42446953139734,227.8011387079605 74.26519707858097,216.28475215582876 74.12498458172195,214.06506691567483 74.769962067483,210.65508640333428 78.86416697793175,205.89392221026355 81.38799192279112,201.87261480971938 82.81815939152148,198.5911914250173 86.99649180017877,184.5 88.70708426274359,185.046929687378 86.43564181227703,190.90223739639623 83.60334937425796,200.4571028680075 80.23824944789521,206.11911396632786 77.20965951413382,209.8508405481698 76.25621453498024,212.68177720942185 75.863619543612,216.92813637308427 77.65833950438537,225.8388779652887 78.16310449328739,229.44170834959368 77.82659450068604,230.7284238942957 76.98531951906625,231.21094092199928 71.37681964179501,238.2234415911953 69.18950468953699,239.86395909648854 68.23605971038342,238.80244870655588 71.60115963674616,235.93957022359245 75.38689705403522,231.11443757329835 76.50859702948947,227.09343946605804 76.20012953632977,229.28086855157744 75.35885455459356,231.05010199159733 71.74137213395443,235.87523558855173 68.65669720119331,238.54511233707308 73.0032846062677,234.07386068359483 71.7974571326049,235.81090094096726 68.7127821999602,238.44861114639207 68.15193221229129,238.60944644833216 68.37627220735885,238.0626061000221 68.60061220254283,238.73811463318998 68.12388971296605,238.44861114639207 68.0958472135244,238.86678276734892 69.75035467732232,241.85830265903496 72.86307210929226,244.07779978524195 69.918609673623,250.25371274640202 69.02124969335273,250.2858786553843 69.07733469211962,249.996385361359 69.918609673623,250.832698624552 70.92813965165988,250.832698624552 80.57475944049656,256.84765812178375 85.06155934242997,258.6810730401485 85.03351684298832,259.61385915329447 83.7996468701167,260.83612659713253 81.44407692144159,265.5 77.34987201110926,264.1812563132262 71.65724463574588,259.64602414451656 60.27198988466989,253.59895038083778 53.59787503059488,246.68327724700794 48.80260763561819,245.39662429713644 43.4745327521814,242.95196978666354 41.25917530071456,241.44013485236792 36.604120402480476,208.69272305082995 36.267610409879126,202.86990364437224 34.33267795224674,195.79230434802594 32.90251048351638,192.9290503131051 32.36970299505629,192.83253569647786 29.172858064994216,194.95585069883964 28.387668082257733,194.63413718849188 25.359078148496337,191.41698472108692 21.292915737372823,185.94775306555675" stroke="#4dd2ff" stroke-linecap="round" stroke-linejoin="round" stroke-width="0.5"><title>2020-07-26 11.2km</title></polyline></svg>