<?xml version="1.0" encoding="utf-8" ?>
<svg baseProfile="full" height="300mm" version="1.1" viewBox="0,0,200,300" width="200mm" xmlns="http://www.w3.org/2000/svg" xmlns:ev="http://www.w3.org/2001/xml-events" xmlns:xlink="http://www.w3.org/1999/xlink"><defs /><rect fill="#222222" height="300" width="200" x="0" y="0" /><text fill="#FFFFFF" style="font-size:12px; font-family:Arial; font-weight:bold;" x="10" y="20">“LongRun”</text><text fill="#FFFFFF" style="font-size:4px; font-family:Arial" x="10" y="280">ATHLETE</text><text fill="#FFFFFF" style="font-size:9px; font-family:Arial" x="10" y="290">“96mhy”</text><text fill="#FFFFFF" style="font-size:4px; font-family:Arial" x="120" y="280">STATISTICS</text><text fill="#FFFFFF" style="font-size:3px; font-family:Arial" x="120" y="285">Number: 9</text><text fill="#FFFFFF" style="font-size:3px; font-family:Arial" x="120" y="290">Weekly: 1.3</text><text fill="#FFFFFF" style="font-size:3px; font-family:Arial" x="141" y="285">Total: 91.6 km</text><text fill="#FFFFFF" style="font-size:3px; font-family:Arial" x="141" y="290">Avg: 10.2 km</text><text fill="#FFFFFF" style="font-size:3px; font-family:Arial" x="167" y="285">Min: 10.0 km</text><text fill="#FFFFFF" style="font-size:3px; font-family:Arial" x="167" y="290">Max: 11.2 km</text><polyline fill="none" points="41.46261461521499,85.02564864668238 42.15090384584619,85.73945550623466 42.19061283994233,85.28383448679233 41.44937828386901,79.61883438566292 40.469889763277024,77.18874393339502 40.24487213016255,74.60673098516418 39.14625662728213,73.63466788100777 39.02712964511011,72.35882578312885 39.50363757403102,71.55382475724036 41.54203260329086,70.05013236988452 42.005304200924,69.26030828835792 41.95235887548188,68.33377874251164 43.103919703746215,67.58951328268449 43.84515425981954,66.57183838587662 44.66580680414336,64.46052133974445 43.964281242049765,63.685858214783366 44.0172265675501,62.28841687827662 45.11584207037231,60.57197708073363 45.261441715294495,59.97957308075274 45.11584207037231,59.220077452104306 44.520207159162965,58.35424788371893 44.62609781004721,56.668144806608325 43.68631828355137,52.961691408767365 43.43482798768673,52.870547992453794 42.94508372741984,53.21993079643289 42.04501319502015,53.32626453653211 41.317014970234595,52.779404522370896 40.58901674550725,51.73125075366988 40.04632715974003,51.88315753740608 39.75512786989566,51.73125075366988 39.82130952668376,50.409655435723835 39.437455917242914,49.08804881681863 38.56385804753518,48.54117380673415 38.391785739862826,47.781621971327695 37.59760585834738,46.50556648428028 36.34015437919879,45.442178863086156 36.128373077488504,44.45474094884412 36.234263728314545,44.029381133717834 38.6168033729773,40.687227560483734 38.73593035520753,40.07955550837505 38.21971343213227,39.350345891318284 37.5049515387509,39.22881062056695 36.75048065127339,38.27171702310443 35.21506621368462,37.34500170037791 34.725321953359526,36.19039778431761 34.804739941551816,35.30924688577943 34.92386692378204,34.86866955211735 35.585683491721284,34.18501258158358 38.24618609494064,34.002703545222175 39.1065476333024,33.41019769140985 39.30509260366671,33.0 39.08007497055223,33.7140471310704 38.25942242628662,34.139435342673096 35.44008384674089,34.336936614257866 34.84444893564796,35.73463070559956 35.05623023730004,36.66135568669415 35.559210829029325,37.42096218180086 37.081388935272116,38.43882903079793 37.57113319565542,39.07689139775175 38.52414905349724,39.45668917481089 38.80211201199563,39.98840449437557 38.6168033729773,40.82395344291581 36.326918047852814,44.12052976409905 36.618117337697186,45.54851795449213 37.67702384648146,46.26250710163731 38.74916668655351,48.43483677452605 39.49040124268504,48.87537543171493 40.01985449710628,50.5767543183465 39.900727514817845,51.82239484183083 40.747852721775416,51.442627453332534 41.75381390505936,53.02245365642011 42.283267159422394,53.311074006735 43.395118993590586,52.794595104438486 43.68631828355137,52.84016684170638 44.66580680414336,56.3491502636316 44.74522479221923,58.43019803991774 45.274678046640474,59.63020555503317 45.12907840166008,61.103619763292954 44.17606254381826,62.7441056585958 44.17606254381826,63.230172210387536 44.7716974549694,64.49090020672884 44.10988088703016,66.48070299369283 43.06421070965007,67.8477282358217 42.23032183403848,68.22745532476983 41.91264988138573,69.71597652012133 40.90668869810179,70.79438598528213 39.49040124268504,71.88797663527657 39.09331130189821,72.66259866602195 39.238910946878605,73.57391373410064 40.3507627810468,74.60673098516418 40.62872573948698,77.34062570538663 41.422905621060636,79.26951123324397 41.81999556190567,81.51731598236074 42.283267159422394,87.0" stroke="#4dd2ff" stroke-linecap="round" stroke-linejoin="round" stroke-width="0.5"><title>2022-06-23 10.1km</title></polyline><polyline fill="none" points="102.26083761279006,87.0 101.6570530870813,81.7347793282097 100.42264916800195,78.16295001584513 100.19455279159592,75.60719460864493 98.98698374029482,74.39088673808146 98.89306170295458,73.39012002016534 99.41634162521223,72.45093313437246 101.68388795491774,70.60333595062548 101.93881919904379,70.06444933610328 101.77780999225797,69.17143315273279 103.22689285385422,68.29380884263082 104.01852145412704,66.9850617077318 104.58205367816845,65.24518094706582 103.93801685067592,64.01339527875825 103.91118198289769,63.24352431936131 105.09191616642056,61.01087714867026 104.51496650860645,58.82439184818941 104.60888854594668,57.13061465822102 103.65625073877163,53.542826143602724 103.41473692847649,53.40424038992205 102.89145700627705,53.75840373900428 101.99248893471668,53.83539566549007 101.34845210728236,53.3734435391234 100.62391067651333,52.233955803880235 100.08721332036657,52.4957307465811 99.83228207624052,52.40333964025194 99.64443800156005,51.78739753928676 99.80544720840408,50.8942771916918 99.4700113607687,49.70857507067558 98.57104328926653,49.15421775379218 97.37689167179633,46.73658096778672 96.42425386467949,46.305406155690434 96.10223545099143,44.4882992652274 98.47712125192629,41.08501694120059 98.59787815704476,40.330433017690666 98.36978178069694,39.88384081993718 97.33663937012898,39.62204480172659 96.73285484447842,38.72885509353364 95.21668481326196,37.68166067346465 94.78732692840276,36.97326047801471 94.72023975889897,36.06465553717862 94.89466639963211,35.17144554240804 95.27035454893485,34.663237582019065 98.23560744163115,34.37063225073507 98.74546992999967,34.031825394704356 99.48342879471602,33.0 99.37608932348667,33.70841816657048 98.79913966561435,34.309031058699475 97.81966699066106,34.83264041871007 95.23010224720929,34.7864396632649 94.70682232500985,36.24945696911891 94.90808383357944,36.86546016740613 95.71312986774137,37.80486038036179 96.9341163529898,38.66725561558269 97.59157061431324,39.514246314094635 98.45028638414806,39.776042512472486 98.74546992999967,40.330433017690666 98.65154789271764,41.13121583886095 96.20957492222078,44.56529574752494 96.51817590196151,46.07441916097014 97.69891008548439,46.782778198699816 98.5576258553192,48.81544287223369 99.55051596421981,49.56998592536547 99.9664564151899,51.063662476386526 99.83228207624052,52.32634701006464 100.43606660189107,52.04917322809342 100.73125014774268,52.141564543242566 101.48262644634815,53.3118498193362 102.08641097205691,53.81999728323717 103.68308560654987,53.3734435391234 104.70281058328692,56.96123593224911 104.70281058328692,59.08615578053286 105.29317767504836,59.979229435135494 105.07849873253144,61.84234946746437 104.09902605757816,63.58226800743432 104.11244349152548,64.04419003841758 104.63572341372492,64.81405706443184 104.6893931493978,65.47613968202495 104.30028756614774,67.06204713584157 103.17322311823955,68.47857226370252 102.00590636860579,69.20222689893853 102.05957610422047,70.11063968994131 101.81806229398353,70.68031960149528 100.95934652414871,71.5887238256255 99.4700113607687,72.63569165491208 99.0406534759095,73.29774123174138 99.14799294713885,74.31390490972262 100.07379588647746,75.11451407679124 100.36897943238728,75.69957203597005 100.27505739498883,76.3462125029182 100.50315377133666,77.9166139599256 101.6570530870813,81.45765755233879 102.14008070767159,86.70749237935524" stroke="#4dd2ff" stroke-linecap="round" stroke-linejoin="round" stroke-width="0.5"><title>2022-06-20 10.0km</title></polyline><polyline fill="none" points="133.0,82.89993502896687 133.2782480677124,81.04844082142517 133.97386823699344,80.72032625983411 135.8818549871212,81.61092176154489 137.55134339351207,81.65779510670109 139.7375782112358,73.97042981702543 141.0493191019632,74.48605438688537 147.40927493560594,78.72819137954502 152.43761501647532,80.08753247599816 159.2745675377082,80.79063656521612 159.2745675377082,79.9469113820378 152.5369893264724,79.19693066006585 149.03901361790486,78.3063251527783 145.00441663595848,76.26729337997676 142.63930806028657,74.39230455715733 140.01582627906464,72.8688640903274 139.93632683111355,72.40011100422998 141.92381302907597,64.33739784080535 144.54729481041431,60.07153766247211 149.2377622377826,61.78257966660021 151.86124401912093,63.28266007525963 153.53073242551181,63.58736262829916 155.20022083178628,63.42329207653529 156.73058520432096,62.86076351896918 158.24107471480966,61.78257966660021 163.90541037917137,56.43845807973412 163.50791313953232,56.48533691720513 157.2672064776998,62.08728434734803 154.40522635250818,63.30609874849324 152.23886639683042,63.165466670456226 145.00441663595848,59.34492666144797 148.20426941476762,53.883545961172786 151.3047478836961,49.71123881902895 160.82480677217245,40.592824808496516 162.2955465586856,39.444205358595354 166.27051895472687,37.28759714358603 166.92638940003235,37.100064971033134 167.64188443124294,37.756426858657505 174.9955833639251,47.95321996806888 183.38277511962224,42.37434486365237 184.7740154581843,43.73391601635376 187.0,47.81257783835463 186.44350386457518,48.562668132508406 177.57931542152073,54.23514117526065 169.31137283775024,57.79794021471753 166.56864188448526,59.39180486477562 163.42841369158123,62.93107966925891 161.99742362904362,66.02496749482816 161.46080235554837,68.2750397464406" stroke="#4dd2ff" stroke-linecap="round" stroke-linejoin="round" stroke-width="0.5"><title>2022-06-10 10.1km</title></polyline><polyline fill="none" points="13.635060639469884,172.9949798938469 13.0,172.36312358336 13.39691289968323,171.4504389611393 13.25799338473007,170.88878495620156 13.6549062844133,170.60795740240428 14.547960308613256,170.51434813610103 16.413450937136076,171.4270367403078 17.723263506079093,171.21641663770424 19.84674751921557,163.68076138054312 22.58544652699493,164.94452328061743 24.39140022045467,166.51251380861504 27.745314222644083,168.47833649000677 31.97243660420645,169.64846048686013 39.39470782794524,170.49094581312966 39.29547960299533,169.64846048686013 32.706725468626246,169.01659432107408 27.527012127800845,167.37841411409318 20.34288864384871,162.86165246908786 20.04520396911539,162.18295985904115 21.295479603111744,156.70653403029428 22.426681367098354,153.31295214121928 24.629547960241325,149.91931656491943 25.76074972434435,150.08314848130976 31.496141124516726,152.93848464394978 33.3219404630363,153.38316472416045 34.73098125681281,153.28954794183664 36.69570011016913,152.63422932106187 38.283351708902046,151.58103448644397 43.859977949177846,146.26817281720287 37.707828004378825,151.62784325557004 36.51708930544555,152.44699506176403 34.711135611869395,153.03210157956346 32.865490628406405,153.0555058070604 31.25799338473007,152.5172079281183 25.28445424477104,149.21717836313474 27.646085997694172,144.77024971085484 31.01984564505983,140.04236129036872 40.843439911725,130.5862717723503 42.94707827991806,128.9712048953661 47.23373759642709,127.00502010616765 54.477398015442304,137.23366535718378 55.80705622932874,137.18685344667756 63.28886438801419,132.41198490009992 63.7651598675875,132.52901726283017 64.36052921717055,133.3014292549051 67.0,137.74859569851833 64.38037486211397,139.78489902774163 56.87872105836868,144.48938796384027 49.238147739786655,147.74268065819342 46.45975744212046,149.42782006500056 43.54244762950111,152.49380364193348 42.70893054024782,153.96826868854987 41.65711135615129,157.43205146861146" stroke="#4dd2ff" stroke-linecap="round" stroke-linejoin="round" stroke-width="0.5"><title>2022-06-07 10.0km</title></polyline><polyline fill="none" points="73.72524942434393,171.85909143846948 73.0,171.90796108900395 73.41442824259866,170.58847678148595 73.06216423632577,170.22195198357804 73.47659247880802,169.83099153813964 76.06676899467129,171.00387082764064 77.43438219476957,170.61291174669168 79.65157329232898,162.76915102440398 81.55794320791028,163.69771023944486 87.50498848804273,167.70513217433472 92.10514197999146,169.0979388639389 100.08288564847317,169.73325132015452 99.83422870293725,168.87802259386808 93.34842670755461,168.16940203300328 88.41673062171321,166.7277188004373 84.8112049116753,164.7484436565428 80.02455871063285,161.5962286193535 79.83806600153912,161.13194513740018 81.82732156559359,153.0679206233035 82.904834996094,150.6730937953398 84.41749808122404,148.5226152313844 85.59861857246142,148.5714899734303 91.79432079801336,151.72388831140415 93.45203376817517,152.09044337813975 95.15118956251536,151.9926954189723 98.30084420565981,150.5997823660873 104.76592478889506,144.63703910369077 104.49654643132817,144.22159615752753 104.08211818872951,144.49041226951522 97.90713737520855,150.25766204553656 95.04758250177838,151.52839203047915 92.2501918647904,151.25958436570363 85.1634689179482,147.4962431830354 90.40598618565127,139.04071350985032 99.4405218726024,130.14495617497596 100.33154259400908,130.24271367049369 108.2471220260486,139.55391949762998 109.0552570988657,140.0671243093966 109.80122793547343,139.99380940830451 113.67613200296182,137.42777274845866 119.10514197999146,133.37093099279446 122.8142747504171,131.66019255922583 125.75671527243685,133.68863812007476 125.28012279351242,135.25272817480436 125.5909439753741,136.2058401951217 126.1711435149191,136.45022723914008 126.41980046033859,135.59487141808495 126.6684574058745,135.66818775933643 127.0,136.03476910555037 126.93783576355781,136.96343916363548 118.13123561011162,142.68200675488333 113.77973906358238,144.56372569857922 102.36224098224193,131.19584701492568 99.33691481198184,128.0920389110106" stroke="#4dd2ff" stroke-linecap="round" stroke-linejoin="round" stroke-width="0.5"><title>2022-06-05 10.1km</title></polyline><polyline fill="none" points="133.09886488469783,172.75921862207178 133.0,171.8965105003299 133.59318930795416,171.15038174958318 133.49432442325633,170.7073665716889 134.10728670819663,170.35761709848884 137.21164408652112,171.77992805470421 137.80483339435887,171.38354726391844 139.42621750279795,165.06467188009992 140.13804467231967,163.68895100311784 147.75064079090953,168.4456431970757 152.91138777008746,169.84465016928152 159.45624313433655,170.5674668510619 159.53533504216466,169.65811643534107 159.12010252650362,169.56484950732556 152.75320395454764,168.86534625012428 148.5811058219988,167.62955156834505 145.83266202860978,166.25384719856083 140.4741852801526,162.7096188821888 140.3160014647292,161.84687020102865 141.99670450389385,154.78152699691418 143.2028560967883,152.19317449857772 144.6858293665573,150.09448729848373 146.44562431343365,150.4209511053632 151.80410106189083,153.1958733300853 153.40571219322737,153.5922878496931 155.5214207250392,153.2891474008211 157.97326986456756,152.02994401101023 163.84584401315078,146.5266717600316 163.98425485170446,146.3167984028696 163.6283412668854,146.13024413461972 157.51849139516708,151.89003206526104 154.6514097400941,153.00932506640675 152.12046869285405,152.752820938098 145.79311607475393,149.48819604828896 145.3778835592093,148.97517903165135 149.11497619922739,142.81887877256668 151.32954961550422,139.95054195124249 161.07762724277563,130.5757091458363 164.6367630903842,128.17363354972622 166.77224459894933,127.24078137792822 167.40497986075934,127.4040308019903 174.58257048705127,137.19876800225757 174.97803002560977,136.96556519137812 175.82826803356875,137.33868956666265 183.30245331372134,132.6512672821409 184.37019406806212,133.51413383269391 187.0,137.64185264179832 186.6836323690368,138.22485734678048 177.82533870369662,144.07813643520058 174.34529476379976,145.80377377325203 169.3822775540175,147.6693119777774 166.21860124496743,149.604790653073 164.53789820580278,151.40033953399688 162.58037348964717,154.61829848615162 161.7499084584415,158.0693890267139" stroke="#4dd2ff" stroke-linecap="round" stroke-linejoin="round" stroke-width="0.5"><title>2022-05-18 10.0km</title></polyline><polyline fill="none" points="13.409300000639632,258.3069939586712 13.76410548610147,256.7264093089034 13.586702743312344,256.3312613147573 13.961219644872472,256.1220650212199 16.306878132396378,257.0518247539003 17.844368569669314,256.9356050091592 19.97320148302242,249.33469607615552 27.56209659029264,254.07657933027076 31.859185248496942,255.3085219274799 39.4283689399017,256.02908882482734 39.32981186057441,255.16905708525155 32.80533320980612,254.47173150522576 28.173150482121855,253.17005098385562 20.48569829540793,248.4281475567841 20.15060422581155,247.80053478400805 21.707806078949943,241.1756205495185 22.870779614895582,238.36287537121098 24.526538547477685,235.80580207685125 25.630377835710533,235.87554084650765 32.2534135656897,239.0137618550798 34.59907205333002,239.1299913750845 36.077428243122995,238.7348107483267 38.06828124530148,237.5027723247913 47.72687501821201,228.50635127838177 47.33264670101926,227.9716682999424 47.80572068167385,226.76281487981032 39.94086575228721,217.51020958830486 40.729322386789136,216.48728382859554 43.587477687047794,214.3716717846837 46.603324314113706,213.0 47.076398294768296,213.04649749326927 54.70471623376943,223.7871464666532 58.07536834653001,221.34613743702357 63.2200478867162,218.30064885615138 64.0676387688145,219.06783710524905 64.83638398745097,220.71844487960334 66.59069999924395,222.92698457161896 66.49214291991666,223.90338429409894 55.90711260144599,230.59857612109045 49.71772802050691,233.1092188100738 47.096109710633755,234.50400751960115 44.454779985011555,236.80538892729965 42.73988680494949,239.33920435140317 41.419221942080185,243.66289320145734 40.15769132680725,254.6576852163853 39.76346300949808,255.49447490840976 39.92115433642175,257.12155657036055 38.777892216457985,266.7443284125329 38.3442410674179,267.0 37.20097894733772,266.81405705773795 37.14184469974134,266.3956848445814" stroke="#4dd2ff" stroke-linecap="round" stroke-linejoin="round" stroke-width="0.5"><title>2022-05-15 10.0km</title></polyline><polyline fill="none" points="73.0,254.85997108111042 75.23728813568596,255.8433160361892 76.66101694921963,255.79534809160396 78.59322033915669,248.43214451558015 79.02033898304217,247.9044787650637 86.87118644069415,252.89326797840477 92.34237288148142,254.30833661997167 98.91186440677848,254.9559073678829 98.85084745765198,253.9485742693505 92.05762711865827,253.32498480050708 86.50508474581875,251.45420578293852 79.12203389848582,246.5853088486183 80.64745762711391,239.48564028156397 81.64406779664569,236.94313564999902 83.61694915255066,233.92087491344137 84.0847457627533,233.80094307471882 85.71186440682504,234.37661530383048 91.50847457628697,237.3029258273309 94.3152542373864,237.326911818207 95.80000000004657,236.82320546006667 96.41016949154437,236.1036229464371 93.96949152543675,236.8471915032569 91.3661016948754,236.67928914572985 84.53220338979736,233.20128289971035 84.30847457633354,232.76952656087815 86.64745762723032,228.81172060704557 90.18644067796413,223.87035981994995 98.46440677973442,215.9063795225229 99.35932203382254,216.146262662136 107.12881355930585,225.2856152800523 107.96271186438389,224.82985604181886 108.67457627120893,225.45352634014853 116.7084745762404,220.12828453449765 117.74576271185651,219.14477981679374 120.53220338979736,217.82543730846373 123.50169491523411,215.78643785452005 124.29491525422782,216.43412208398513 127.0,220.72798037339817 126.97966101695783,221.6635026148433 118.74237288138829,226.74883592098195 117.66440677968785,227.708319578378 109.26440677978098,231.35431928290927 106.37627118639648,232.98540483624674 103.46779661020264,235.935720021007 101.9016949152574,238.64613728685072 101.00677966105286,242.6997078314016 98.60677966102958,264.21356214547995" stroke="#4dd2ff" stroke-linecap="round" stroke-linejoin="round" stroke-width="0.5"><title>2022-05-07 10.0km</title></polyline><polyline fill="none" points="169.31010979623534,248.94429605106416 170.82440476317424,247.74338875304966 172.91824471740983,245.16999375978776 173.83429969719145,243.62594222465123 174.282979687443,241.86742580529244 172.84346471889876,234.1898347705428 172.74998972099274,232.7100446104305 173.17997471161652,230.43672426887497 175.90944465179928,227.26261480682297 177.59199461503886,224.5817432064796 178.54543959419243,222.3941276166588 181.3309945332585,213.0 182.4713895083405,213.36461979156593 180.9570945414016,217.26815826425445 179.06889958272222,223.6380685786571 176.82549963181373,227.41274264419917 174.8064396759728,229.90056036543683 174.17080968990922,231.78785147292365 173.90907969558612,234.61875758203678 175.10555966943502,240.55925197683973 175.44206966203637,242.96113889971457 175.2177296669688,243.81894926285895 174.6568796792999,244.1406272813183 170.91787976108026,248.81562772743928 169.45966979290824,249.9093060643063 168.82403980684467,249.201632471013 171.06743975775316,247.29304681571375 173.59126470261253,244.07629171550798 174.3390646862099,241.39562631069566 174.1334196907701,242.85391236770374 173.57256970298477,244.033401327717 171.1609147557756,247.25015705901023 169.10446480067912,249.03007489137235 172.00218973739538,246.04924045570078 171.19830475491472,247.20726729395392 169.14185479981825,248.96574076425168 168.76795480807777,249.07296429887356 168.9175148048671,248.70840406666684 169.06707480154,249.15874308877392 168.74925980856642,248.96574076425168 168.73056480893865,249.24452184488473 169.83356978476513,251.23886843933724 171.90871473937295,252.7185331901419 169.94573978229892,256.83580849759164 169.34749979549088,256.85725243692286 169.38488979463,256.66425690756296 169.94573978229892,257.2217990830104 170.61875976761803,257.2217990830104 177.0498396268813,261.2317720811843 180.04103956150357,262.4540486934129 180.0223445618758,263.07590610218176 179.19976457988378,263.89075106474047 177.62938461417798,267.0 174.89991467399523,266.1208375421411 171.1048297570087,263.09734942966315 163.51465992303565,259.06596692053427 159.06525002024136,254.4555181646574 155.8684050902957,253.5977495314146 152.31635516800452,251.96797985777084 150.83945020032115,250.96008990156406 147.7360802681651,229.12848203386238 147.51174027309753,225.2466024295718 146.22178530145902,220.5282028986694 145.26834032218903,218.619366875384 144.9131353299599,218.5550237976422 142.7819053765852,219.97056713255006 142.2584453880554,219.75609145898488 140.23938543221448,217.61132314738643 137.52861049154308,213.96516871034692" stroke="#4dd2ff" stroke-linecap="round" stroke-linejoin="round" stroke-width="0.5"><title>2020-07-26 11.2km</title></polyline></svg>