<?xml version="1.0" encoding="utf-8" ?>
<svg baseProfile="full" height="300mm" version="1.1" viewBox="0,0,200,300" width="200mm" xmlns="http://www.w3.org/2000/svg" xmlns:ev="http://www.w3.org/2001/xml-events" xmlns:xlink="http://www.w3.org/1999/xlink"><defs /><rect fill="#222222" height="300" width="200" x="0" y="0" /><text fill="#FFFFFF" style="font-size:12px; font-family:Arial; font-weight:bold;" x="10" y="20">“LongRun”</text><text fill="#FFFFFF" style="font-size:4px; font-family:Arial" x="10" y="280">ATHLETE</text><text fill="#FFFFFF" style="font-size:9px; font-family:Arial" x="10" y="290">“96mhy”</text><text fill="#FFFFFF" style="font-size:4px; font-family:Arial" x="120" y="280">STATISTICS</text><text fill="#FFFFFF" style="font-size:3px; font-family:Arial" x="120" y="285">Number: 10</text><text fill="#FFFFFF" style="font-size:3px; font-family:Arial" x="120" y="290">Weekly: 1.2</text><text fill="#FFFFFF" style="font-size:3px; font-family:Arial" x="141" y="285">Total: 102.0 km</text><text fill="#FFFFFF" style="font-size:3px; font-family:Arial" x="141" y="290">Avg: 10.2 km</text><text fill="#FFFFFF" style="font-size:3px; font-family:Arial" x="167" y="285">Min: 10.0 km</text><text fill="#FFFFFF" style="font-size:3px; font-family:Arial" x="167" y="290">Max: 11.2 km</text><polyline fill="none" points="13.457458563614637,83.03408069712168 13.0,82.54155072910362 13.616574585670605,80.64178171326057 14.630939226481132,80.54796552448533 16.00331491709221,81.53303346500616 16.639779005548917,81.50957951886812 19.086187845328823,73.69927318446571 22.487292817793787,75.15346582705388 27.77790055249352,78.69508740937454 32.03425414359663,79.82088867382845 39.49281767953653,80.82941396803653 39.254143646452576,79.75052626749675 32.59116022102535,79.11726357431326 27.81767955806572,77.68655210465658 20.299447513767518,73.04253779955616 19.98121546965558,72.36234546471678 20.478453038726002,69.36009151850885 21.691712707164697,65.20846816406993 23.103867403347977,62.206114317290485 24.456353591172956,60.23579681839328 25.152486187871546,60.11851544541423 27.12154696136713,60.77529030984442 32.21325966855511,63.378913779059076 34.58011049730703,63.496193373255664 37.364640883984976,62.41721869257162 43.828729281784035,56.48276114773762 43.60994475136977,56.20128083108284 37.72265193366911,61.73699274119281 34.779005524818785,63.1912662951072 32.23314917134121,63.02707461224054 25.112707182299346,59.367913143432816 27.658563535893336,54.793873719187104 31.099447513814084,50.00862061213411 42.93370165745728,38.9599087034876 47.150276243221015,37.1066721027164 54.46961325965822,47.24063145768014 56.001104972325265,47.170258387428476 63.55911602207925,42.38483555610583 64.57348066288978,43.01820646015403 65.1303867403185,44.58989656732592 66.9801104972139,47.404835198642104 67.0,48.08510650358221 59.85966850828845,52.80003120370384 59.18342541437596,52.84694535769813 56.97569060768001,50.125907500929316 56.35911602212582,48.85920571454335 47.96574585628696,36.96591930286377 42.25745856354479,39.734040779658244 38.63756906078197,43.01820646015403" stroke="#4dd2ff" stroke-linecap="round" stroke-linejoin="round" stroke-width="0.5"><title>2022-07-27 10.4km</title></polyline><polyline fill="none" points="101.46261461521499,85.02564864668238 102.15090384584619,85.73945550623466 102.19061283994233,85.28383448679233 101.44937828386901,79.61883438566292 100.46988976327702,77.18874393339502 100.24487213016255,74.60673098516418 99.14625662728213,73.63466788100777 99.02712964511011,72.35882578312885 99.50363757403102,71.55382475724036 101.54203260329086,70.05013236988452 102.005304200924,69.26030828835792 101.95235887548188,68.33377874251164 103.10391970374621,67.58951328268449 103.84515425981954,66.57183838587662 104.66580680414336,64.46052133974445 103.96428124204976,63.685858214783366 104.0172265675501,62.28841687827662 105.11584207037231,60.57197708073363 105.2614417152945,59.97957308075274 105.11584207037231,59.220077452104306 104.52020715916296,58.35424788371893 104.62609781004721,56.668144806608325 103.68631828355137,52.961691408767365 103.43482798768673,52.870547992453794 102.94508372741984,53.21993079643289 102.04501319502015,53.32626453653211 101.3170149702346,52.779404522370896 100.58901674550725,51.73125075366988 100.04632715974003,51.88315753740608 99.75512786989566,51.73125075366988 99.82130952668376,50.409655435723835 99.43745591724291,49.08804881681863 98.56385804753518,48.54117380673415 98.39178573986283,47.781621971327695 97.59760585834738,46.50556648428028 96.3401543791988,45.442178863086156 96.1283730774885,44.45474094884412 96.23426372831455,44.029381133717834 98.6168033729773,40.687227560483734 98.73593035520753,40.07955550837505 98.21971343213227,39.350345891318284 97.5049515387509,39.22881062056695 96.75048065127339,38.27171702310443 95.21506621368462,37.34500170037791 94.72532195335953,36.19039778431761 94.80473994155182,35.30924688577943 94.92386692378204,34.86866955211735 95.58568349172128,34.18501258158358 98.24618609494064,34.002703545222175 99.1065476333024,33.41019769140985 99.30509260366671,33.0 99.08007497055223,33.7140471310704 98.25942242628662,34.139435342673096 95.44008384674089,34.336936614257866 94.84444893564796,35.73463070559956 95.05623023730004,36.66135568669415 95.55921082902933,37.42096218180086 97.08138893527212,38.43882903079793 97.57113319565542,39.07689139775175 98.52414905349724,39.45668917481089 98.80211201199563,39.98840449437557 98.6168033729773,40.82395344291581 96.32691804785281,44.12052976409905 96.61811733769719,45.54851795449213 97.67702384648146,46.26250710163731 98.74916668655351,48.43483677452605 99.49040124268504,48.87537543171493 100.01985449710628,50.5767543183465 99.90072751481785,51.82239484183083 100.74785272177542,51.442627453332534 101.75381390505936,53.02245365642011 102.2832671594224,53.311074006735 103.39511899359059,52.794595104438486 103.68631828355137,52.84016684170638 104.66580680414336,56.3491502636316 104.74522479221923,58.43019803991774 105.27467804664047,59.63020555503317 105.12907840166008,61.103619763292954 104.17606254381826,62.7441056585958 104.17606254381826,63.230172210387536 104.7716974549694,64.49090020672884 104.10988088703016,66.48070299369283 103.06421070965007,67.8477282358217 102.23032183403848,68.22745532476983 101.91264988138573,69.71597652012133 100.90668869810179,70.79438598528213 99.49040124268504,71.88797663527657 99.09331130189821,72.66259866602195 99.2389109468786,73.57391373410064 100.3507627810468,74.60673098516418 100.62872573948698,77.34062570538663 101.42290562106064,79.26951123324397 101.81999556190567,81.51731598236074 102.2832671594224,87.0" stroke="#4dd2ff" stroke-linecap="round" stroke-linejoin="round" stroke-width="0.5"><title>2022-06-23 10.1km</title></polyline><polyline fill="none" points="162.26083761279006,87.0 161.6570530870813,81.7347793282097 160.42264916800195,78.16295001584513 160.19455279159592,75.60719460864493 158.98698374029482,74.39088673808146 158.89306170295458,73.39012002016534 159.41634162521223,72.45093313437246 161.68388795491774,70.60333595062548 161.9388191990438,70.06444933610328 161.77780999225797,69.17143315273279 163.22689285385422,68.29380884263082 164.01852145412704,66.9850617077318 164.58205367816845,65.24518094706582 163.93801685067592,64.01339527875825 163.9111819828977,63.24352431936131 165.09191616642056,61.01087714867026 164.51496650860645,58.82439184818941 164.60888854594668,57.13061465822102 163.65625073877163,53.542826143602724 163.4147369284765,53.40424038992205 162.89145700627705,53.75840373900428 161.99248893471668,53.83539566549007 161.34845210728236,53.3734435391234 160.62391067651333,52.233955803880235 160.08721332036657,52.4957307465811 159.83228207624052,52.40333964025194 159.64443800156005,51.78739753928676 159.80544720840408,50.8942771916918 159.4700113607687,49.70857507067558 158.57104328926653,49.15421775379218 157.37689167179633,46.73658096778672 156.42425386467949,46.305406155690434 156.10223545099143,44.4882992652274 158.4771212519263,41.08501694120059 158.59787815704476,40.330433017690666 158.36978178069694,39.88384081993718 157.33663937012898,39.62204480172659 156.73285484447842,38.72885509353364 155.21668481326196,37.68166067346465 154.78732692840276,36.97326047801471 154.72023975889897,36.06465553717862 154.89466639963211,35.17144554240804 155.27035454893485,34.663237582019065 158.23560744163115,34.37063225073507 158.74546992999967,34.031825394704356 159.48342879471602,33.0 159.37608932348667,33.70841816657048 158.79913966561435,34.309031058699475 157.81966699066106,34.83264041871007 155.2301022472093,34.7864396632649 154.70682232500985,36.24945696911891 154.90808383357944,36.86546016740613 155.71312986774137,37.80486038036179 156.9341163529898,38.66725561558269 157.59157061431324,39.514246314094635 158.45028638414806,39.776042512472486 158.74546992999967,40.330433017690666 158.65154789271764,41.13121583886095 156.20957492222078,44.56529574752494 156.5181759019615,46.07441916097014 157.69891008548439,46.782778198699816 158.5576258553192,48.81544287223369 159.5505159642198,49.56998592536547 159.9664564151899,51.063662476386526 159.83228207624052,52.32634701006464 160.43606660189107,52.04917322809342 160.73125014774268,52.141564543242566 161.48262644634815,53.3118498193362 162.0864109720569,53.81999728323717 163.68308560654987,53.3734435391234 164.70281058328692,56.96123593224911 164.70281058328692,59.08615578053286 165.29317767504836,59.979229435135494 165.07849873253144,61.84234946746437 164.09902605757816,63.58226800743432 164.11244349152548,64.04419003841758 164.63572341372492,64.81405706443184 164.6893931493978,65.47613968202495 164.30028756614774,67.06204713584157 163.17322311823955,68.47857226370252 162.0059063686058,69.20222689893853 162.05957610422047,70.11063968994131 161.81806229398353,70.68031960149528 160.9593465241487,71.5887238256255 159.4700113607687,72.63569165491208 159.0406534759095,73.29774123174138 159.14799294713885,74.31390490972262 160.07379588647746,75.11451407679124 160.36897943238728,75.69957203597005 160.27505739498883,76.3462125029182 160.50315377133666,77.9166139599256 161.6570530870813,81.45765755233879 162.1400807076716,86.70749237935524" stroke="#4dd2ff" stroke-linecap="round" stroke-linejoin="round" stroke-width="0.5"><title>2022-06-20 10.0km</title></polyline><polyline fill="none" points="13.0,142.89993502896687 13.278248067712411,141.04844082142517 13.97386823699344,140.7203262598341 15.881854987121187,141.6109217615449 17.55134339351207,141.6577951067011 19.737578211235814,133.97042981702543 21.049319101963192,134.48605438688537 27.409274935605936,138.72819137954502 32.43761501647532,140.08753247599816 39.27456753770821,140.79063656521612 39.27456753770821,139.9469113820378 32.536989326472394,139.19693066006585 29.039013617904857,138.3063251527783 25.004416635958478,136.26729337997676 22.639308060286567,134.39230455715733 20.01582627906464,132.8688640903274 19.936326831113547,132.40011100422998 21.923813029075973,124.33739784080535 24.547294810414314,120.07153766247211 29.23776223778259,121.78257966660021 31.86124401912093,123.28266007525963 33.530732425511815,123.58736262829916 35.20022083178628,123.42329207653529 36.73058520432096,122.86076351896918 38.241074714809656,121.78257966660021 43.90541037917137,116.43845807973412 43.50791313953232,116.48533691720513 37.2672064776998,122.08728434734803 34.40522635250818,123.30609874849324 32.23886639683042,123.16546667045623 25.004416635958478,119.34492666144797 28.204269414767623,113.88354596117279 31.30474788369611,109.71123881902895 40.82480677217245,100.59282480849652 42.2955465586856,99.44420535859535 46.27051895472687,97.28759714358603 46.92638940003235,97.10006497103313 47.64188443124294,97.7564268586575 54.99558336392511,107.95321996806888 63.38277511962224,102.37434486365237 64.7740154581843,103.73391601635376 67.0,107.81257783835463 66.44350386457518,108.5626681325084 57.57931542152073,114.23514117526065 49.31137283775024,117.79794021471753 46.56864188448526,119.39180486477562 43.42841369158123,122.9310796692589 41.997423629043624,126.02496749482816 41.46080235554837,128.2750397464406" stroke="#4dd2ff" stroke-linecap="round" stroke-linejoin="round" stroke-width="0.5"><title>2022-06-10 10.1km</title></polyline><polyline fill="none" points="73.63506063946988,142.9949798938469 73.0,142.36312358336 73.39691289968323,141.4504389611393 73.25799338473007,140.88878495620156 73.6549062844133,140.60795740240428 74.54796030861326,140.51434813610103 76.41345093713608,141.4270367403078 77.72326350607909,141.21641663770424 79.84674751921557,133.68076138054312 82.58544652699493,134.94452328061743 84.39140022045467,136.51251380861504 87.74531422264408,138.47833649000677 91.97243660420645,139.64846048686013 99.39470782794524,140.49094581312966 99.29547960299533,139.64846048686013 92.70672546862625,139.01659432107408 87.52701212780084,137.37841411409318 80.34288864384871,132.86165246908786 80.04520396911539,132.18295985904115 81.29547960311174,126.70653403029428 82.42668136709835,123.31295214121928 84.62954796024133,119.91931656491943 85.76074972434435,120.08314848130976 91.49614112451673,122.93848464394978 93.3219404630363,123.38316472416045 94.73098125681281,123.28954794183664 96.69570011016913,122.63422932106187 98.28335170890205,121.58103448644397 103.85997794917785,116.26817281720287 97.70782800437883,121.62784325557004 96.51708930544555,122.44699506176403 94.7111356118694,123.03210157956346 92.8654906284064,123.0555058070604 91.25799338473007,122.5172079281183 85.28445424477104,119.21717836313474 87.64608599769417,114.77024971085484 91.01984564505983,110.04236129036872 100.843439911725,100.5862717723503 102.94707827991806,98.9712048953661 107.23373759642709,97.00502010616765 114.4773980154423,107.23366535718378 115.80705622932874,107.18685344667756 123.28886438801419,102.41198490009992 123.7651598675875,102.52901726283017 124.36052921717055,103.30142925490509 127.0,107.74859569851833 124.38037486211397,109.78489902774163 116.87872105836868,114.48938796384027 109.23814773978665,117.74268065819342 106.45975744212046,119.42782006500056 103.54244762950111,122.49380364193348 102.70893054024782,123.96826868854987 101.65711135615129,127.43205146861146" stroke="#4dd2ff" stroke-linecap="round" stroke-linejoin="round" stroke-width="0.5"><title>2022-06-07 10.0km</title></polyline><polyline fill="none" points="133.72524942434393,141.85909143846948 133.0,141.90796108900395 133.41442824259866,140.58847678148595 133.06216423632577,140.22195198357804 133.47659247880802,139.83099153813964 136.0667689946713,141.00387082764064 137.43438219476957,140.61291174669168 139.65157329232898,132.76915102440398 141.55794320791028,133.69771023944486 147.50498848804273,137.70513217433472 152.10514197999146,139.0979388639389 160.08288564847317,139.73325132015452 159.83422870293725,138.87802259386808 153.3484267075546,138.16940203300328 148.4167306217132,136.7277188004373 144.8112049116753,134.7484436565428 140.02455871063285,131.5962286193535 139.83806600153912,131.13194513740018 141.8273215655936,123.06792062330351 142.904834996094,120.67309379533981 144.41749808122404,118.5226152313844 145.59861857246142,118.57148997343029 151.79432079801336,121.72388831140415 153.45203376817517,122.09044337813975 155.15118956251536,121.99269541897229 158.3008442056598,120.59978236608731 164.76592478889506,114.63703910369077 164.49654643132817,114.22159615752753 164.0821181887295,114.49041226951522 157.90713737520855,120.25766204553656 155.04758250177838,121.52839203047915 152.2501918647904,121.25958436570363 145.1634689179482,117.4962431830354 150.40598618565127,109.04071350985032 159.4405218726024,100.14495617497596 160.33154259400908,100.24271367049369 168.2471220260486,109.55391949762998 169.0552570988657,110.0671243093966 169.80122793547343,109.99380940830451 173.67613200296182,107.42777274845866 179.10514197999146,103.37093099279446 182.8142747504171,101.66019255922583 185.75671527243685,103.68863812007476 185.28012279351242,105.25272817480436 185.5909439753741,106.20584019512171 186.1711435149191,106.45022723914008 186.4198004603386,105.59487141808495 186.6684574058745,105.66818775933643 187.0,106.03476910555037 186.9378357635578,106.96343916363548 178.13123561011162,112.68200675488333 173.77973906358238,114.56372569857922 162.36224098224193,101.19584701492568 159.33691481198184,98.0920389110106" stroke="#4dd2ff" stroke-linecap="round" stroke-linejoin="round" stroke-width="0.5"><title>2022-06-05 10.1km</title></polyline><polyline fill="none" points="13.098864884697832,202.75921862207178 13.0,201.8965105003299 13.593189307954162,201.15038174958318 13.49432442325633,200.7073665716889 14.107286708196625,200.35761709848884 17.21164408652112,201.77992805470421 17.804833394358866,201.38354726391844 19.426217502797954,195.06467188009992 20.138044672319666,193.68895100311784 27.75064079090953,198.4456431970757 32.91138777008746,199.84465016928152 39.456243134336546,200.5674668510619 39.53533504216466,199.65811643534107 39.120102526503615,199.56484950732556 32.753203954547644,198.86534625012428 28.58110582199879,197.62955156834505 25.832662028609775,196.25384719856083 20.474185280152597,192.7096188821888 20.316001464729197,191.84687020102865 21.996704503893852,184.78152699691418 23.20285609678831,182.19317449857772 24.6858293665573,180.09448729848373 26.445624313433655,180.4209511053632 31.804101061890833,183.1958733300853 33.40571219322737,183.5922878496931 35.521420725039206,183.2891474008211 37.973269864567555,182.02994401101023 43.84584401315078,176.5266717600316 43.98425485170446,176.3167984028696 43.6283412668854,176.13024413461972 37.518491395167075,181.89003206526104 34.651409740094095,183.00932506640675 32.12046869285405,182.752820938098 25.793116074753925,179.48819604828896 25.377883559209295,178.97517903165135 29.114976199227385,172.81887877256668 31.32954961550422,169.95054195124249 41.077627242775634,160.5757091458363 44.63676309038419,158.17363354972622 46.77224459894933,157.24078137792822 47.40497986075934,157.4040308019903 54.58257048705127,167.19876800225757 54.97803002560977,166.96556519137812 55.82826803356875,167.33868956666265 63.302453313721344,162.6512672821409 64.37019406806212,163.51413383269391 67.0,167.64185264179832 66.68363236903679,168.22485734678048 57.825338703696616,174.07813643520058 54.34529476379976,175.80377377325203 49.38227755401749,177.6693119777774 46.21860124496743,179.604790653073 44.537898205802776,181.40033953399688 42.58037348964717,184.61829848615162 41.749908458441496,188.0693890267139" stroke="#4dd2ff" stroke-linecap="round" stroke-linejoin="round" stroke-width="0.5"><title>2022-05-18 10.0km</title></polyline><polyline fill="none" points="73.40930000063963,198.30699395867123 73.76410548610147,196.72640930890338 73.58670274331234,196.33126131475728 73.96121964487247,196.1220650212199 76.30687813239638,197.0518247539003 77.84436856966931,196.9356050091592 79.97320148302242,189.33469607615552 87.56209659029264,194.07657933027076 91.85918524849694,195.3085219274799 99.4283689399017,196.02908882482734 99.32981186057441,195.16905708525155 92.80533320980612,194.47173150522576 88.17315048212186,193.17005098385562 80.48569829540793,188.4281475567841 80.15060422581155,187.80053478400805 81.70780607894994,181.1756205495185 82.87077961489558,178.36287537121098 84.52653854747768,175.80580207685125 85.63037783571053,175.87554084650765 92.2534135656897,179.0137618550798 94.59907205333002,179.1299913750845 96.077428243123,178.7348107483267 98.06828124530148,177.5027723247913 107.72687501821201,168.50635127838177 107.33264670101926,167.9716682999424 107.80572068167385,166.76281487981032 99.94086575228721,157.51020958830486 100.72932238678914,156.48728382859554 103.5874776870478,154.3716717846837 106.6033243141137,153.0 107.0763982947683,153.04649749326927 114.70471623376943,163.7871464666532 118.07536834653001,161.34613743702357 123.2200478867162,158.30064885615138 124.0676387688145,159.06783710524905 124.83638398745097,160.71844487960334 126.59069999924395,162.92698457161896 126.49214291991666,163.90338429409894 115.90711260144599,170.59857612109045 109.71772802050691,173.1092188100738 107.09610971063375,174.50400751960115 104.45477998501156,176.80538892729965 102.73988680494949,179.33920435140317 101.41922194208018,183.66289320145734 100.15769132680725,194.6576852163853 99.76346300949808,195.49447490840976 99.92115433642175,197.12155657036055 98.77789221645799,206.74432841253292 98.3442410674179,207.0 97.20097894733772,206.81405705773795 97.14184469974134,206.3956848445814" stroke="#4dd2ff" stroke-linecap="round" stroke-linejoin="round" stroke-width="0.5"><title>2022-05-15 10.0km</title></polyline><polyline fill="none" points="133.0,194.85997108111042 135.23728813568596,195.8433160361892 136.66101694921963,195.79534809160396 138.5932203391567,188.43214451558015 139.02033898304217,187.9044787650637 146.87118644069415,192.89326797840477 152.34237288148142,194.30833661997167 158.91186440677848,194.9559073678829 158.85084745765198,193.9485742693505 152.05762711865827,193.32498480050708 146.50508474581875,191.45420578293852 139.12203389848582,186.5853088486183 140.6474576271139,179.48564028156397 141.6440677966457,176.94313564999902 143.61694915255066,173.92087491344137 144.0847457627533,173.80094307471882 145.71186440682504,174.37661530383048 151.50847457628697,177.3029258273309 154.3152542373864,177.326911818207 155.80000000004657,176.82320546006667 156.41016949154437,176.1036229464371 153.96949152543675,176.8471915032569 151.3661016948754,176.67928914572985 144.53220338979736,173.20128289971035 144.30847457633354,172.76952656087815 146.64745762723032,168.81172060704557 150.18644067796413,163.87035981994995 158.46440677973442,155.9063795225229 159.35932203382254,156.146262662136 167.12881355930585,165.2856152800523 167.9627118643839,164.82985604181886 168.67457627120893,165.45352634014853 176.7084745762404,160.12828453449765 177.74576271185651,159.14477981679374 180.53220338979736,157.82543730846373 183.5016949152341,155.78643785452005 184.29491525422782,156.43412208398513 187.0,160.72798037339817 186.97966101695783,161.6635026148433 178.7423728813883,166.74883592098195 177.66440677968785,167.708319578378 169.26440677978098,171.35431928290927 166.37627118639648,172.98540483624674 163.46779661020264,175.935720021007 161.9016949152574,178.64613728685072 161.00677966105286,182.6997078314016 158.60677966102958,204.21356214547995" stroke="#4dd2ff" stroke-linecap="round" stroke-linejoin="round" stroke-width="0.5"><title>2022-05-07 10.0km</title></polyline><polyline fill="none" points="49.31010979623534,248.94429605106416 50.82440476317424,247.74338875304966 52.918244717409834,245.16999375978776 53.834299697191454,243.62594222465123 54.282979687443,241.86742580529244 52.84346471889876,234.1898347705428 52.749989720992744,232.7100446104305 53.179974711616524,230.43672426887497 55.90944465179928,227.26261480682297 57.59199461503886,224.5817432064796 58.54543959419243,222.3941276166588 61.33099453325849,213.0 62.47138950834051,213.36461979156593 60.9570945414016,217.26815826425445 59.068899582722224,223.6380685786571 56.82549963181373,227.41274264419917 54.8064396759728,229.90056036543683 54.17080968990922,231.78785147292365 53.909079695586115,234.61875758203678 55.105559669435024,240.55925197683973 55.442069662036374,242.96113889971457 55.21772966696881,243.81894926285895 54.65687967929989,244.1406272813183 50.91787976108026,248.81562772743928 49.459669792908244,249.9093060643063 48.82403980684467,249.201632471013 51.067439757753164,247.29304681571375 53.591264702612534,244.07629171550798 54.339064686209895,241.39562631069566 54.1334196907701,242.85391236770374 53.572569702984765,244.033401327717 51.16091475577559,247.25015705901023 49.104464800679125,249.03007489137235 52.00218973739538,246.04924045570078 51.198304754914716,247.20726729395392 49.14185479981825,248.96574076425168 48.767954808077775,249.07296429887356 48.917514804867096,248.70840406666684 49.06707480154,249.15874308877392 48.74925980856642,248.96574076425168 48.73056480893865,249.24452184488473 49.83356978476513,251.23886843933724 51.908714739372954,252.7185331901419 49.945739782298915,256.83580849759164 49.347499795490876,256.85725243692286 49.38488979463,256.66425690756296 49.945739782298915,257.2217990830104 50.61875976761803,257.2217990830104 57.049839626881294,261.2317720811843 60.04103956150357,262.4540486934129 60.0223445618758,263.07590610218176 59.19976457988378,263.89075106474047 57.62938461417798,267.0 54.89991467399523,266.1208375421411 51.1048297570087,263.09734942966315 43.51465992303565,259.06596692053427 39.065250020241365,254.4555181646574 35.86840509029571,253.5977495314146 32.31635516800452,251.96797985777084 30.839450200321153,250.96008990156406 27.736080268165097,229.12848203386238 27.51174027309753,225.2466024295718 26.221785301459022,220.5282028986694 25.268340322189033,218.619366875384 24.913135329959914,218.5550237976422 22.7819053765852,219.97056713255006 22.258445388055407,219.75609145898488 20.239385432214476,217.61132314738643 17.528610491543077,213.96516871034692" stroke="#4dd2ff" stroke-linecap="round" stroke-linejoin="round" stroke-width="0.5"><title>2020-07-26 11.2km</title></polyline></svg>