<?xml version="1.0" encoding="utf-8" ?>
<svg baseProfile="full" height="300mm" version="1.1" viewBox="0,0,200,300" width="200mm" xmlns="http://www.w3.org/2000/svg" xmlns:ev="http://www.w3.org/2001/xml-events" xmlns:xlink="http://www.w3.org/1999/xlink"><defs /><rect fill="#222222" height="300" width="200" x="0" y="0" /><text fill="#FFFFFF" style="font-size:12px; font-family:Arial; font-weight:bold;" x="10" y="20">“LongRun”</text><text fill="#FFFFFF" style="font-size:4px; font-family:Arial" x="10" y="280">ATHLETE</text><text fill="#FFFFFF" style="font-size:9px; font-family:Arial" x="10" y="290">“96mhy”</text><text fill="#FFFFFF" style="font-size:4px; font-family:Arial" x="120" y="280">STATISTICS</text><text fill="#FFFFFF" style="font-size:3px; font-family:Arial" x="120" y="285">Number: 1</text><text fill="#FFFFFF" style="font-size:3px; font-family:Arial" x="120" y="290">Weekly: 1.0</text><text fill="#FFFFFF" style="font-size:3px; font-family:Arial" x="141" y="285">Total: 11.2 km</text><text fill="#FFFFFF" style="font-size:3px; font-family:Arial" x="141" y="290">Avg: 11.2 km</text><text fill="#FFFFFF" style="font-size:3px; font-family:Arial" x="167" y="285">Min: 11.2 km</text><text fill="#FFFFFF" style="font-size:3px; font-family:Arial" x="167" y="290">Max: 11.2 km</text><polyline fill="none" points="127.93032938893884,176.83288815326523 132.47321428963915,173.23016625916352 138.75473415246233,165.50998127943603 141.5028990919236,160.87782667402644 142.84893906279467,155.60227741592098 138.53039415716194,132.5695043116575 138.2499691634439,128.13013383134967 139.539924134966,121.31017280666856 147.7283339558635,111.78784442052711 152.77598384558223,103.74522961943876 155.63631878304295,97.18238285003463 163.99298360035755,69.0 167.41416852548718,70.093859374756 162.87128362455405,81.80447479279246 157.20669874851592,100.91420573601499 150.47649889579043,112.23822793265572 144.41931902826764,119.7016810963396 142.5124290699605,125.3635544188437 141.727239087224,133.85627274616854 145.31667900877073,151.6777559305774 146.32620898657478,158.88341669918736 145.65318900137208,161.4568477885914 143.9706390381325,162.42188184399856 132.75363928359002,176.4468831823906 128.37900937907398,179.72791819297709 126.47211942076683,177.60489741311176 133.20231927349232,171.8791404471849 140.77379410807043,162.2288751465967 143.01719405897893,154.1868789321161 142.40025907265954,158.56173710315488 140.71770910918713,162.10020398319466 133.48274426790886,171.75047117710346 127.31339440238662,177.09022467414616 136.0065692125354,168.14772136718966 133.5949142652098,171.62180188193452 127.4255643999204,176.89722229278414 126.30386442458257,177.21889289666433 126.7525444147177,176.1252122000442 127.20122440508567,177.47622926637996 126.2477794259321,176.89722229278414 126.19169442704879,177.73356553469785 129.50070935464464,183.71660531806992 135.72614421858452,188.1555995704839 129.837219347246,200.50742549280403 128.04249938670546,200.5717573107686 128.15466938423924,199.99277072271798 129.837219347246,201.665397249104 131.85627930331975,201.665397249104 151.14951888099313,213.6953162435675 160.12311868485995,217.36214608029695 160.06703368597664,219.22771830658894 157.5992937402334,221.67225319426507 152.88815384288318,231.0 144.6997440222185,228.36251262645237 133.31448927149177,219.29204828903312 110.54397976933978,207.19790076167556 97.19575006118976,193.36655449401587 87.60521527123637,190.79324859427288 76.9490655043628,185.90393957332708 72.51835060142912,182.88026970473584 63.20824080496095,117.38544610165991 62.53522081975825,105.73980728874449 58.66535590449348,91.58460869605187 55.80502096703276,85.85810062621022 54.73940599011257,85.66507139295572 48.34571612998843,89.91170139767928 46.775336164515465,89.26827437698375 40.718156296992674,82.83396944217384 32.585831474745646,71.8955061311135" stroke="#4DD2FF" stroke-linecap="round" stroke-linejoin="round" stroke-width="0.5"><title>2020-07-26 11.2km</title></polyline></svg>