<?xml version="1.0" encoding="utf-8" ?>
<svg baseProfile="full" height="300mm" version="1.1" viewBox="0,0,200,300" width="200mm" xmlns="http://www.w3.org/2000/svg" xmlns:ev="http://www.w3.org/2001/xml-events" xmlns:xlink="http://www.w3.org/1999/xlink"><defs /><rect fill="#222222" height="300" width="200" x="0" y="0" /><text fill="#FFFFFF" style="font-size:12px; font-family:Arial; font-weight:bold;" x="10" y="20">“LongRun”</text><text fill="#FFFFFF" style="font-size:4px; font-family:Arial" x="10" y="280">ATHLETE</text><text fill="#FFFFFF" style="font-size:9px; font-family:Arial" x="10" y="290">“96mhy”</text><text fill="#FFFFFF" style="font-size:4px; font-family:Arial" x="120" y="280">STATISTICS</text><text fill="#FFFFFF" style="font-size:3px; font-family:Arial" x="120" y="285">Number: 4</text><text fill="#FFFFFF" style="font-size:3px; font-family:Arial" x="120" y="290">Weekly: 1.0</text><text fill="#FFFFFF" style="font-size:3px; font-family:Arial" x="141" y="285">Total: 41.3 km</text><text fill="#FFFFFF" style="font-size:3px; font-family:Arial" x="141" y="290">Avg: 10.3 km</text><text fill="#FFFFFF" style="font-size:3px; font-family:Arial" x="167" y="285">Min: 10.0 km</text><text fill="#FFFFFF" style="font-size:3px; font-family:Arial" x="167" y="290">Max: 11.2 km</text><polyline fill="none" points="14.64829732698854,109.13882793311495 14.5,107.84476575048757 15.389783961931244,106.72557262438932 15.241486634826288,106.06104985752609 16.160930062294938,105.53642564773327 20.817466129665263,107.66989208204905 21.70725009148009,107.07532089587767 24.139326254022308,97.59700782014988 25.207067008363083,95.53342650466948 36.62596118636429,102.6684647956281 44.36708165507298,104.76697525390773 54.18436470150482,105.85120027657831 54.303002563188784,104.4871746530116 53.680153789697215,104.3472742610029 44.129805931821465,103.29801937518641 37.871658732998185,101.4443273525103 33.748993042856455,99.38077079784125 25.711277920170687,94.06442832326866 25.47400219703559,92.77030530152842 27.995056755724363,82.172290495364 29.804284145124257,78.28976174784475 32.028744049719535,75.14173094774014 34.668436470092274,75.6314266580448 42.70615159277804,79.7938099951134 45.10856828978285,80.38843177453964 48.2821310875006,79.93372110123164 51.95990479667671,78.04491601651534 60.76876601960976,69.79000764005468 60.97638227744028,69.47519760430441 60.4425119003281,69.1953662019223 51.277737092692405,77.83504809788428 46.97711461002473,79.51398759961012 43.180703039164655,79.12923140716157 33.68967411213089,74.23229407242616 33.06682533863932,73.46276854746975 38.67246429878287,64.22831815885729 41.994324423139915,59.925812926871004 56.616440864047036,45.8635637187399 61.95514463551808,42.260450324596604 65.15836689842399,40.86117206688505 66.10746979119722,41.1060462029709 76.87385573040228,55.79815200337907 77.46704503824003,55.448347787052626 78.74240205041133,56.00803435000125 89.95367997058202,48.97690092321136 91.55529110203497,50.271200749033596 95.5,56.46277896268293 95.02544855349697,57.33728602016345 81.73800805548672,66.11720465277904 76.51794214558322,68.70566065987805 69.07341633085161,71.50396796668065 64.32790186733473,74.40718597959494 61.80684730852954,77.1005093010026 58.870560234296136,81.92744772922015 57.62486268754583,87.10408354006358" stroke="#4dd2ff" stroke-linecap="round" stroke-linejoin="round" stroke-width="0.5"><title>2022-05-18 10.0km</title></polyline><polyline fill="none" points="105.11395000095945,102.46049093801412 105.64615822921041,100.08961396335508 105.38005411496852,99.4968919721432 105.94182946719229,99.1830975318444 109.46031719865277,100.57773713086499 111.76655285456218,100.40340751374606 114.95980222465005,89.00204411422601 126.34314488549717,96.11486899541342 132.7887778726872,97.96278289123438 144.14255340991076,99.04363323724829 143.9947177908616,97.7535856278846 134.2079998147674,96.70759725786047 127.25972572318278,94.7550764757907 115.7285474431701,87.64222133517615 115.22590633877553,86.70080217602663 117.56170911854133,76.76343082429958 119.30616942234337,72.54431305683102 121.78980782115832,68.70870311526232 123.44556675362401,68.81331126976875 133.38012034865096,73.52064278261969 136.89860808011144,73.69498706262675 139.1161423648009,73.10221612249734 142.10242186801042,71.25415848719422 156.59031252737623,57.759526917594485 155.9989700516453,56.95750244992087 156.70858102256898,55.144222319708206 144.9112986284308,41.26531438247184 146.0939835802419,39.73092574288603 150.3812165305717,36.557507677032845 154.90498647117056,34.5 155.61459744209424,34.56974623989663 167.05707435077056,50.68071969997254 172.1130525197368,47.01920615552808 179.8300718300743,42.450973284227075 181.10145815322176,43.60175565787358 182.25457598117646,46.07766731941956 184.88604999892414,49.39047685742844 184.738214379875,50.855076441162964 168.86066890216898,60.89786418163567 159.57659203070216,64.66382821512525 155.64416456606705,66.75601127941627 151.68216997757554,70.20808339095674 149.10983020742424,74.00880652709748 147.12883291312028,80.494339802186 145.23653699015267,96.98652782459976 144.64519451430533,98.24171236262191 144.88173150469083,100.6823348555481 143.16683832462877,115.11649261880666 142.51636160106864,115.5 140.801468421123,115.22108558661421 140.71276704967022,114.59352726687212" stroke="#4dd2ff" stroke-linecap="round" stroke-linejoin="round" stroke-width="0.5"><title>2022-05-15 10.0km</title></polyline><polyline fill="none" points="14.5,247.28995662168018 17.85593220347073,248.76497405429836 19.991525423829444,248.69302213742048 22.889830508618616,237.6482167733775 23.53050847456325,236.85671814761008 35.30677966109943,244.33990196761442 43.513559322222136,246.46250492997933 53.36779661010951,247.43386105183163 53.27627118641976,245.92286140404758 43.086440677870996,244.98747720077517 34.75762711861171,242.18130867442233 23.68305084761232,234.877963272942 25.971186440670863,224.22846042233869 27.46610169496853,220.41470347502036 30.425423728884198,215.88131237015477 31.127118644071743,215.70141461209278 33.56779661017936,216.56492295576027 42.26271186443046,220.95438874102547 46.472881355904974,220.99036772732507 48.70000000006985,220.23480819011456 49.61525423731655,219.15543441966292 45.954237288213335,220.2707872549072 42.04915254225489,220.0189337186166 31.79830508469604,214.80192434956552 31.46271186438389,214.15428984133177 34.97118644078728,208.21758091056836 40.279661016887985,200.80553972994676 52.69661016948521,188.85956928378437 54.038983050733805,189.219393993204 65.69322033901699,202.92842292008572 66.94406779657584,202.2447840627283 68.0118644067552,203.18028951023007 80.06271186436061,195.19242680174648 81.61864406766836,193.71716972521972 85.79830508457962,191.7381559626956 90.25254237279296,188.67965678180917 91.44237288122531,189.65118312599952 95.5,196.0919705600827 95.46949152532034,197.49525392227224 83.11355932196602,205.12325388146564 81.49661016953178,206.562479367567 68.89661016955506,212.03147892435663 64.56440677959472,214.47810725437012 60.201694915187545,218.90358003153233 57.85254237288609,222.96920593027608 56.51016949152108,229.04956174708786 52.910169491544366,261.32034321821993" stroke="#4dd2ff" stroke-linecap="round" stroke-linejoin="round" stroke-width="0.5"><title>2022-05-07 10.0km</title></polyline><polyline fill="none" points="158.96516469446942,238.41644407663262 161.23660714481957,236.61508312958176 164.37736707623117,232.75499063971802 165.7514495459618,230.43891333701322 166.42446953139734,227.8011387079605 164.26519707858097,216.28475215582876 164.12498458172195,214.06506691567483 164.769962067483,210.65508640333428 168.86416697793175,205.89392221026355 171.38799192279112,201.87261480971938 172.81815939152148,198.5911914250173 176.99649180017877,184.5 178.7070842627436,185.046929687378 176.43564181227703,190.90223739639623 173.60334937425796,200.4571028680075 170.2382494478952,206.11911396632786 167.20965951413382,209.8508405481698 166.25621453498024,212.68177720942185 165.863619543612,216.92813637308427 167.65833950438537,225.8388779652887 168.1631044932874,229.44170834959368 167.82659450068604,230.7284238942957 166.98531951906625,231.21094092199928 161.376819641795,238.2234415911953 159.189504689537,239.86395909648854 158.23605971038342,238.80244870655588 161.60115963674616,235.93957022359245 165.38689705403522,231.11443757329835 166.50859702948947,227.09343946605804 166.20012953632977,229.28086855157744 165.35885455459356,231.05010199159733 161.74137213395443,235.87523558855173 158.6566972011933,238.54511233707308 163.0032846062677,234.07386068359483 161.7974571326049,235.81090094096726 158.7127821999602,238.44861114639207 158.15193221229129,238.60944644833216 158.37627220735885,238.0626061000221 158.60061220254283,238.73811463318998 158.12388971296605,238.44861114639207 158.0958472135244,238.86678276734892 159.75035467732232,241.85830265903496 162.86307210929226,244.07779978524195 159.918609673623,250.25371274640202 159.02124969335273,250.2858786553843 159.07733469211962,249.996385361359 159.918609673623,250.832698624552 160.92813965165988,250.832698624552 170.57475944049656,256.84765812178375 175.06155934242997,258.6810730401485 175.03351684298832,259.61385915329447 173.7996468701167,260.83612659713253 171.4440769214416,265.5 167.34987201110926,264.1812563132262 161.65724463574588,259.64602414451656 150.2719898846699,253.59895038083778 143.59787503059488,246.68327724700794 138.8026076356182,245.39662429713644 133.4745327521814,242.95196978666354 131.25917530071456,241.44013485236792 126.60412040248048,208.69272305082995 126.26761040987913,202.86990364437224 124.33267795224674,195.79230434802594 122.90251048351638,192.9290503131051 122.36970299505629,192.83253569647786 119.17285806499422,194.95585069883964 118.38766808225773,194.63413718849188 115.35907814849634,191.41698472108692 111.29291573737282,185.94775306555675" stroke="#4dd2ff" stroke-linecap="round" stroke-linejoin="round" stroke-width="0.5"><title>2020-07-26 11.2km</title></polyline></svg>