<?xml version="1.0" encoding="utf-8" ?>
<svg baseProfile="full" height="200mm" version="1.1" viewBox="0,0,200,200" width="200mm" xmlns="http://www.w3.org/2000/svg" xmlns:ev="http://www.w3.org/2001/xml-events" xmlns:xlink="http://www.w3.org/1999/xlink"><defs /><rect fill="#1a1a1a" height="200" width="200" x="0" y="0" /><text alignment-baseline="middle" fill="#e1ed5e" style="dominant-baseline: central; font-size:9.0px; font-family:Arial;" text-anchor="middle" x="100.0" y="100.0">2016</text><line stroke="#e1ed5e" stroke-width="0.3" x1="100.0" x2="100.0" y1="15.0" y2="10.0" /><path d="M 100.0 14.0 a86.0,86.0 0 0,1 42.35913384403234,11.155469271406648" fill="none" id="id13" stroke="none" /><text fill="#e1ed5e" style="font-size:6.75px; font-family:Arial;" text-anchor="middle"><textPath startOffset="22.145653131862478" xlink:href="#id13">January</textPath></text><line stroke="#e1ed5e" stroke-width="0.3" x1="143.13028292997686" x2="145.6673583964461" y1="26.7553504044142" y2="22.446841604673864" /><path d="M 143.63769802327073 25.89364864446614 a86.0,86.0 0 0,1 29.32050498858742,28.57503671076992" fill="none" id="id14" stroke="none" /><text fill="#e1ed5e" style="font-size:6.75px; font-family:Arial;" text-anchor="middle"><textPath startOffset="20.669276256404974" xlink:href="#id14">February</textPath></text><line stroke="#e1ed5e" stroke-width="0.3" x1="172.87174338648825" x2="177.1583165268699" y1="56.24261187166439" y2="53.66864786411523" /><path d="M 173.72905801456457 55.72781907015455 a86.0,86.0 0 0,1 12.242430191666344,42.057860355516425" fill="none" id="id15" stroke="none" /><text fill="#e1ed5e" style="font-size:6.75px; font-family:Arial;" text-anchor="middle"><textPath startOffset="22.145653131862474" xlink:href="#id15">March</textPath></text><path d="M 119.4528033332814 92.08871423366111 l 32.135178622413605 -13.069097388102445 a55.691079712717716,55.691079712717716 0 0,0 0.3525545680750419,0.8886678172385694 l -32.35479186545477 12.515528553650311" fill="#fff216" stroke="none" /><path d="M 120.77682067341334 96.94652285012252 l 51.45570848037955 -7.562217171978105 a73.00843262177744,73.00843262177744 0 0,0 0.17158888036161987,1.2415316613915715 l -51.57794187729638 6.677797202386448" fill="#38ff7f" stroke="none" /><line stroke="#e1ed5e" stroke-width="0.3" x1="184.99686870605535" x2="189.99668451229388" y1="99.2704041080226" y2="99.22748670261217" /><path d="M 185.99683186730306 99.26182062694052 a86.0,86.0 0 0,1 -10.086455211305974,41.156179273409016" fill="none" id="id16" stroke="none" /><text fill="#e1ed5e" style="font-size:6.75px; font-family:Arial;" text-anchor="middle"><textPath startOffset="21.40746469413373" xlink:href="#id16">April</textPath></text><line stroke="#e1ed5e" stroke-width="0.3" x1="174.33088141563837" x2="178.70328620479359" y1="141.23008692659167" y2="143.65538615756765" /><path d="M 175.20536237346943 141.71514677278685 a86.0,86.0 0 0,1 -30.301960400862466,31.63118572779886" fill="none" id="id17" stroke="none" /><text fill="#e1ed5e" style="font-size:6.75px; font-family:Arial;" text-anchor="middle"><textPath startOffset="22.145653131862474" xlink:href="#id17">May</textPath></text><line stroke="#e1ed5e" stroke-width="0.3" x1="143.1302829299769" x2="145.6673583964461" y1="173.24464959558577" y2="177.55315839532614" /><path d="M 143.63769802327073 174.10635135553383 a86.0,86.0 0 0,1 -40.685524379131806,11.842963189579606" fill="none" id="id18" stroke="none" /><text fill="#e1ed5e" style="font-size:6.75px; font-family:Arial;" text-anchor="middle"><textPath startOffset="21.407464694133747" xlink:href="#id18">June</textPath></text><line stroke="#e1ed5e" stroke-width="0.3" x1="101.45913802915013" x2="101.54496967792366" y1="184.9874750549273" y2="189.98673829345242" /><path d="M 101.47630435890484 185.9873277026323 a86.0,86.0 0 0,1 -42.54439059252881,-10.42667462771756" fill="none" id="id19" stroke="none" /><text fill="#e1ed5e" style="font-size:6.75px; font-family:Arial;" text-anchor="middle"><textPath startOffset="22.145653131862474" xlink:href="#id19">July</textPath></text><line stroke="#e1ed5e" stroke-width="0.3" x1="58.13341422392154" x2="55.670673884152215" y1="173.97424548756322" y2="178.32567169271397" /><path d="M 57.64086615596767 174.84453072859336 a86.0,86.0 0 0,1 -31.369924170532244,-30.572349798747886" fill="none" id="id20" stroke="none" /><text fill="#e1ed5e" style="font-size:6.75px; font-family:Arial;" text-anchor="middle"><textPath startOffset="22.145653131862474" xlink:href="#id20">August</textPath></text><path d="M 83.20337586046588 112.60449989151573 l -18.499864072263783 13.882642890309524 a44.129477821863986,44.129477821863986 0 0,0 -0.44948600871032635,-0.6098140971030396 l 18.735452100557943 -13.563022483937605" fill="#ff0000" stroke="none" /><path d="M 82.18462484594161 111.1181117155819 l -53.02700041578494 33.092770119443806 a83.50595337465072,83.50595337465072 0 0,0 -0.7484997897048937,-1.2226181545399233 l 53.58726816994524 -32.17761484877932" fill="#4cd9ff" stroke="none" /><line stroke="#e1ed5e" stroke-width="0.3" x1="26.387840678322732" x2="22.057713659400548" y1="142.50000000000003" y2="145.00000000000006" /><path d="M 25.521815274538298 143.00000000000003 a86.0,86.0 0 0,1 -11.493303480769221,-40.785679425670985" fill="none" id="id21" stroke="none" /><text fill="#e1ed5e" style="font-size:6.75px; font-family:Arial;" text-anchor="middle"><textPath startOffset="21.40746469413373" xlink:href="#id21">September</textPath></text><path d="M 81.81346652052679 110.50000000000001 l -54.13889085428239 31.257103208347743 a83.51420641669543,83.51420641669543 0 0,0 -0.7061588860153629,-1.2477150887515567 l 54.66748310531913 -30.323131349497064" fill="#4cd9ff" stroke="none" /><path d="M 81.1358732173502 109.22738970284198 l -56.59238034794944 27.68216910852592 a84.0,84.0 0 0,0 -0.6224829681603521,-1.300749991739586 l 57.0592425740697 -26.70660661472123" fill="#4dd2ff" stroke="none" /><path d="M 80.28708602549918 107.23885506374661 l -29.34150586174233 10.77460737463613 a52.25725724231451,52.25725724231451 0 0,0 -0.3019967548998669,-0.8447386718655097 l 29.522142786686143 -10.269333746389698" fill="#ffae10" stroke="none" /><path d="M 80.16572619554312 106.89939002012753 l -46.12481514886636 16.04460503347527 a69.83572384225826,69.83572384225826 0 0,0 -0.3841449618489144,-1.1356563216198126 l 46.39344553228764 -15.250447037381297" fill="#32ff46" stroke="none" /><path d="M 79.73907114497094 105.5222062557868 l -55.759655768655804 15.19754213192256 a78.79363717824438,78.79363717824438 0 0,0 -0.34448022564848285,-1.3080475262719906 l 56.012325475109016 -14.238114101277764" fill="#43ffdf" stroke="none" /><path d="M 79.34024301695615 103.76489593502545 l -61.82430814289116 11.266448419696692 a83.84248513021143,83.84248513021143 0 0,0 -0.24587879755470005,-1.4181635645477482 l 62.0086017579381 -10.203491822228353" fill="#4dd4ff" stroke="none" /><path d="M 79.22317932658666 103.0534771498775 l -61.48354808908948 9.035964266836316 a83.14398873467104,83.14398873467104 0 0,0 -0.19541008378703104,-1.4138900228586402 l 61.62960268943172 -7.979185935777591" fill="#4bdeff" stroke="none" /><path d="M 79.0935383218832 101.97986365728391 l -61.96628572951578 5.868271684689504 a83.2435312275687,83.2435312275687 0 0,0 -0.12251218971864924,-1.4237773504318796 l 62.05789154193217 -4.8036732868819625" fill="#4cddff" stroke="none" /><line stroke="#e1ed5e" stroke-width="0.3" x1="15.003131293944662" x2="10.003315487706104" y1="100.72959589197737" y2="100.7725132973878" /><path d="M 14.003168132696942 100.73817937305945 a86.0,86.0 0 0,1 10.791469493833604,-42.453326145846276" fill="none" id="id22" stroke="none" /><text fill="#e1ed5e" style="font-size:6.75px; font-family:Arial;" text-anchor="middle"><textPath startOffset="22.145653131862435" xlink:href="#id22">October</textPath></text><path d="M 79.22317932658666 96.9465228501225 l -58.323201544648256 -8.571502157313729 a79.94969455095162,79.94969455095162 0 0,0 0.21121379798514664,-1.3561440976199846 l 58.16746625452485 9.571434436865164" fill="#45fff1" stroke="none" /><path d="M 79.64726062577567 94.8264132398404 l -54.35100772447348 -13.815813625598716 a77.07948597128058,77.07948597128058 0 0,0 0.33698607744419706,-1.2795910248815647 l 54.10583216622456 14.746785154853066" fill="#40ffc3" stroke="none" /><path d="M 79.94057633289273 93.78553927170692 l -58.95911963855876 -18.265685976280807 a82.72368324021167,82.72368324021167 0 0,0 0.4318778344758454,-1.3528511653234818 l 58.63687708830566 19.27510617529568" fill="#4be4ff" stroke="none" /><line stroke="#e1ed5e" stroke-width="0.3" x1="26.387840678322718" x2="22.05771365940052" y1="57.5" y2="55.0" /><path d="M 25.521815274538284 57.0 a86.0,86.0 0 0,1 29.574782752854787,-30.346332500585742" fill="none" id="id23" stroke="none" /><text fill="#e1ed5e" style="font-size:6.75px; font-family:Arial;" text-anchor="middle"><textPath startOffset="21.40746469413373" xlink:href="#id23">November</textPath></text><path d="M 82.18462484594161 88.88188828441811 l -47.66325567272555 -29.745396698928708 a77.1834011617332,77.1834011617332 0 0,0 0.7111248869017585,-1.1180064369137792 l 47.1456130941979 30.55921681052116" fill="#40ffc5" stroke="none" /><path d="M 86.40962598614128 83.9905735841838 l -26.538486315152728 -31.26227014917527 a62.00756992043742,62.00756992043742 0 0,0 0.8173946109631939,-0.681899656112243 l 25.997917370027626 31.713231989199393" fill="#9aff23" stroke="none" /><path d="M 87.54013794807813 83.09580414077388 l -14.339215382151632 -19.453899591940594 a45.167484501061345,45.167484501061345 0 0,0 0.6280839613309238,-0.4546843515496603 l 14.003150410446741 19.69718471486333" fill="#ff1702" stroke="none" /><line stroke="#e1ed5e" stroke-width="0.3" x1="56.869717070023135" x2="54.33264160355391" y1="26.7553504044142" y2="22.446841604673864" /><path d="M 56.362301976729285 25.89364864446614 a86.0,86.0 0 0,1 42.16139366436587,-11.88097634709845" fill="none" id="id24" stroke="none" /><text fill="#e1ed5e" style="font-size:6.75px; font-family:Arial;" text-anchor="middle"><textPath startOffset="22.145653131862474" xlink:href="#id24">December</textPath></text><path d="M 92.592206182469 80.34994680014964 l -20.468373408302607 -54.29479225457206 a79.02481172695735,79.02481172695735 0 0,0 1.2734692179472589,-0.46763553621688514 l 19.533315038701218 54.638158639797666" fill="#43ffe2" stroke="none" /></svg>