<?xml version="1.0" encoding="utf-8" ?>
<svg baseProfile="full" height="200mm" version="1.1" viewBox="0,0,200,200" width="200mm" xmlns="http://www.w3.org/2000/svg" xmlns:ev="http://www.w3.org/2001/xml-events" xmlns:xlink="http://www.w3.org/1999/xlink"><defs /><rect fill="#1a1a1a" height="200" width="200" x="0" y="0" /><text alignment-baseline="middle" fill="#e1ed5e" style="dominant-baseline: central; font-size:9.0px; font-family:Arial;" text-anchor="middle" x="100.0" y="100.0">2022</text><line stroke="#e1ed5e" stroke-width="0.3" x1="100.0" x2="100.0" y1="15.0" y2="10.0" /><path d="M 100.0 14.0 a86.0,86.0 0 0,1 42.46469731375804,11.215312516191453" fill="none" id="id85" stroke="none" /><text fill="#e1ed5e" style="font-size:6.75px; font-family:Arial;" text-anchor="middle"><textPath startOffset="22.20632615414155" xlink:href="#id85">January</textPath></text><line stroke="#e1ed5e" stroke-width="0.3" x1="143.23703022742887" x2="145.7803849466894" y1="26.818313649435467" y2="22.513508569990506" /><path d="M 143.74570117128098 25.957352633546478 a86.0,86.0 0 0,1 28.547481713284135,27.462654790039114" fill="none" id="id86" stroke="none" /><text fill="#e1ed5e" style="font-size:6.75px; font-family:Arial;" text-anchor="middle"><textPath startOffset="19.985693538727396" xlink:href="#id86">February</textPath></text><line stroke="#e1ed5e" stroke-width="0.3" x1="172.23445277983987" x2="176.4835382374775" y1="55.19839476539836" y2="52.563006222186495" /><path d="M 173.08426987136738 54.67131705675599 a86.0,86.0 0 0,1 12.851231095245387,41.99856678651699" fill="none" id="id87" stroke="none" /><text fill="#e1ed5e" style="font-size:6.75px; font-family:Arial;" text-anchor="middle"><textPath startOffset="22.20632615414155" xlink:href="#id87">March</textPath></text><line stroke="#e1ed5e" stroke-width="0.3" x1="184.98032266829074" x2="189.97916517819016" y1="98.17113171792111" y2="98.06355123074" /><path d="M 185.9800911702706 98.14961562048488 a86.0,86.0 0 0,1 -9.607161424134198,41.387399972396054" fill="none" id="id88" stroke="none" /><text fill="#e1ed5e" style="font-size:6.75px; font-family:Arial;" text-anchor="middle"><textPath startOffset="21.466115282336823" xlink:href="#id88">April</textPath></text><path d="M 120.9764740272857 100.99374915477107 l 18.78866536801446 0.8901028983447671 a39.80973762392415,39.80973762392415 0 0,0 -0.038319050837596465,0.6842123939876222 l -18.770559966289337 -1.2133870086678127" fill="#ff0000" stroke="none" /><path d="M 120.8583938346157 102.4346265915055 l 30.292558945475438 3.535798111693934 a51.49821299276012,51.49821299276012 0 0,0 -0.11034961243612201,0.8795949850680592 l -30.22720782379247 -4.056710851049388" fill="#ffde14" stroke="none" /><path d="M 120.81339534386255 102.79330883721812 l 30.174014480509204 4.049571918000767 a51.44454273903682,51.44454273903682 0 0,0 -0.12534327853618807,0.8766505981457944 l -30.099837150956418 -4.568367988126971" fill="#ffdd14" stroke="none" /><path d="M 120.5718875245553 104.21870165774334 l 30.068598924791036 6.1662036591743234 a51.694343271462245,51.694343271462245 0 0,0 -0.1862620083878004,0.8701540933723166 l -29.958002877678794 -6.682871571962809" fill="#ffe215" stroke="none" /><path d="M 120.49622156327973 104.57218783832717 l 29.561539650300706 6.59443066879607 a51.28813533946682,51.28813533946682 0 0,0 -0.1996315789107253,0.8600076171035713 l -29.443647505459428 -7.102306943248206" fill="#ffdb14" stroke="none" /><path d="M 119.9155931802556 106.66101706037122 l 29.167375243920844 9.755390278739993 a51.755542884335846,51.755542884335846 0 0,0 -0.28985363774803447,0.8424503487761104 l -28.99513077522958 -10.256013330605404" fill="#ffe315" stroke="none" /><path d="M 119.54520255179757 107.68017299344265 l 28.20896038275759 11.084545945768323 a51.30862261304258,51.30862261304258 0 0,0 -0.33007908481314713,0.819229218917509 l -28.013978683687046 -11.568474532528645" fill="#ffdb14" stroke="none" /><path d="M 119.26925614724726 108.34839909993367 l 28.041581234347 12.149006155122514 a51.560245887094666,51.560245887094666 0 0,0 -0.3598387480095925,0.8113413821064995 l -27.828301401606133 -12.6298958737217" fill="#ffdf14" stroke="none" /><line stroke="#e1ed5e" stroke-width="0.3" x1="174.80103733775053" x2="179.2010983576182" y1="140.37084112569926" y2="142.7455964860345" /><path d="M 175.68104954172406 140.8457921977663 a86.0,86.0 0 0,1 -30.038265399797805,32.042727171017184" fill="none" id="id89" stroke="none" /><text fill="#e1ed5e" style="font-size:6.75px; font-family:Arial;" text-anchor="middle"><textPath startOffset="22.206326154141568" xlink:href="#id89">May</textPath></text><path d="M 118.30583269289576 110.29060199501023 l 37.62843485432333 21.15277973294747 a64.1664128694596,64.1664128694596 0 0,0 -0.5495333937445035,0.9581577923011457 l -37.258749464426444 -21.79735737110693" fill="#56ff2a" stroke="none" /><path d="M 118.12598468904814 110.60418214915192 l 26.186979204943352 15.320077898612391 a51.33912765225275,51.33912765225275 0 0,0 -0.45280896505557444,0.7589338709561597 l -25.919389364189545 -15.768573863454654" fill="#ffdb14" stroke="none" /><path d="M 117.75023020441432 111.22182372390056 l 29.971819458615805 18.94840071231947 a56.45915750852648,56.45915750852648 0 0,0 -0.5264013551427894,0.8169865930225515 l -29.641213240095965 -19.461508905263475" fill="#ccff1d" stroke="none" /><path d="M 117.35343817320211 111.8261652097733 l 50.2504199989519 34.24507367570519 a81.80978359709515,81.80978359709515 0 0,0 -0.8030568845698549,1.156863337035554 l -49.65350220721991 -35.10497827492777" fill="#49eeff" stroke="none" /><path d="M 115.56566222782051 114.09645910891815 l 45.2562237153453 40.98460429696363 a82.05623288700403,82.05623288700403 0 0,0 -0.9571413805719531,1.0387879308923464 l -44.544035926777624 -41.75754348265732" fill="#4aebff" stroke="none" /><path d="M 114.81725581225074 114.88116024355365 l 43.08668404981409 43.27250995953856 a82.06531307220874,82.06531307220874 0 0,0 -1.009598930500023,0.9881050459016704 l -42.33543516693827 -44.0077651083628" fill="#4aebff" stroke="none" /><path d="M 113.75828350139079 115.86535959552629 l 39.71195692722467 45.79382862904234 a81.61447239311619,81.61447239311619 0 0,0 -1.069283760299798,0.9112668181432567 l -38.91780769034782 -46.47061983740854" fill="#49f1ff" stroke="none" /><path d="M 112.92097659922987 116.55440617244103 l 37.23852006596343 47.71013875756859 a81.52243151897989,81.52243151897989 0 0,0 -1.1136401707691355,0.853891794892755 l -36.4117511667008 -48.34406989428872" fill="#49f2ff" stroke="none" /><path d="M 111.45004920935366 117.60387380957326 l 33.106910221059785 50.90020654935735 a81.7198363893757,81.7198363893757 0 0,0 -1.1857867276947733,0.7568251931720297 l -32.22584169131808 -51.46254617135319" fill="#49f0ff" stroke="none" /><line stroke="#e1ed5e" stroke-width="0.3" x1="143.8653032363475" x2="146.44561519142675" y1="172.8068346515853" y2="177.08958963109032" /><path d="M 144.38136562736335 173.6633856474863 a86.0,86.0 0 0,1 -40.68145358897372,12.25698825130547" fill="none" id="id90" stroke="none" /><text fill="#e1ed5e" style="font-size:6.75px; font-family:Arial;" text-anchor="middle"><textPath startOffset="21.466115282336833" xlink:href="#id90">June</textPath></text><path d="M 110.21172684928248 118.3499491758327 l 14.910541410425555 26.793477842063737 a51.66292060494525,51.66292060494525 0 0,0 -0.7807920224881292,0.4257500651465975 l -14.447126576068777 -27.046168558970106" fill="#ffe115" stroke="none" /><path d="M 109.57404056367764 118.69057910512821 l 27.90188144540825 54.47045256062603 a82.2008593922751,82.2008593922751 0 0,0 -1.2648993570348837,0.6342467964972004 l -26.960128180690607 -54.94266719803253" fill="#4ae9ff" stroke="none" /><path d="M 108.92500713936063 119.00905698771935 l 25.858448329332855 55.074994364822196 a81.84335916339575,81.84335916339575 0 0,0 -1.2803887056703496,0.5877636556729572 l -24.906591627895086 -55.51194509082923" fill="#49eeff" stroke="none" /><path d="M 107.93186726928326 119.44442032107085 l 23.13459431373629 56.71284711681669 a82.24995087472792,82.24995087472792 0 0,0 -1.3155249997815701,0.5234745467549142 l -22.154948237912855 -57.102668507977675" fill="#4ae9ff" stroke="none" /><path d="M 106.91757812671514 119.82793768551818 l 19.945476837614514 57.16996101812909 a81.54937232617871,81.54937232617871 0 0,0 -1.3293723051058224,0.45099526296644094 l -18.958434799571464 -57.50481926799365" fill="#49f2ff" stroke="none" /><path d="M 106.2309692047433 120.05430185196036 l 17.965835641953216 57.822832876812555 a81.54957681283554,81.54957681283554 0 0,0 -1.3441118742252303,0.40496988178623017 l -16.96784879328774 -58.12351812770451" fill="#49f2ff" stroke="none" /><path d="M 105.53697534728816 120.25689768951611 l 15.988912398465615 58.49507037826765 a81.6408985606603,81.6408985606603 0 0,0 -1.3587749668765592,0.3588648184655965 l -14.979646988777558 -58.76162654603683" fill="#49f1ff" stroke="none" /><path d="M 104.48393922423573 120.51570834832081 l 12.995546798573658 59.45951419355704 a81.86310922658922,81.86310922658922 0 0,0 -1.379231763728892,0.28903142610864263 l -11.970123573415389 -59.67440160039223" fill="#49eeff" stroke="none" /><path d="M 103.41894727170886 120.7198165907248 l 10.002010925729321 60.61510033641273 a82.43476712214176,82.43476712214176 0 0,0 -1.402035352752989,0.21896908778667726 l -8.957139709367814 -60.77828773154651" fill="#4ae6ff" stroke="none" /><path d="M 102.34483914955558 120.86867818915974 l 6.748407223750416 60.059701181865535 a81.4376431217544,81.4376431217544 0 0,0 -1.3943962798023255,0.1445348757439214 l -5.713578347342488 -60.16696542606522" fill="#49f3ff" stroke="none" /><line stroke="#e1ed5e" stroke-width="0.3" x1="102.19456741930631" x2="102.32365962044197" y1="184.97166512339345" y2="189.96999836594603" /><path d="M 102.22038585953345 185.97133177190398 a86.0,86.0 0 0,1 -42.740103519485714,-10.115201625700543" fill="none" id="id91" stroke="none" /><text fill="#e1ed5e" style="font-size:6.75px; font-family:Arial;" text-anchor="middle"><textPath startOffset="22.20632615414155" xlink:href="#id91">July</textPath></text><path d="M 98.73552117531835 120.96189622390904 l -1.1980420887937087 19.86054131313078 a40.89664308613631,40.89664308613631 0 0,0 -0.7023263074282693,-0.04843653415613479 l 1.539731157000908 -19.83697643445836" fill="#ff1602" stroke="none" /><path d="M 96.93821686468263 120.77559828337769 l -4.549568356459697 30.8709011576603 a52.204344417342455,52.204344417342455 0 0,0 -0.8878818852239818,-0.13866889025876342 l 5.080286105292197 -30.78801396005443" fill="#ffeb16" stroke="none" /><path d="M 96.22490169976321 120.6578951692458 l -5.483687797240308 30.00754911445804 a51.50448877975525,51.50448877975525 0 0,0 -0.8707505481781844,-0.16688141496211595 l 5.999405959990187 -29.908710501147457" fill="#ffde14" stroke="none" /><path d="M 93.76903079525671 120.05430185196036 l -9.034065376795166 29.076034251409578 a51.447169080578774,51.447169080578774 0 0,0 -0.8434362938066963,-0.2700416664366171 l 9.533223015692801 -28.916219738313256" fill="#ffdd14" stroke="none" /><path d="M 93.08242187328487 119.8279376855182 l -6.283793779094999 18.011313959631043 a40.075992629758304,40.075992629758304 0 0,0 -0.6493845895359044,-0.23284620981053994 l 6.59289792926063 -17.900480208780547" fill="#ff0500" stroke="none" /><path d="M 92.06813273071674 119.44442032107085 l -22.915899411566055 56.176731791697605 a81.67094560526762,81.67094560526762 0 0,0 -1.2971233947231977,-0.5421976841941188 l 23.879494265786715 -55.77394906448352" fill="#49f0ff" stroke="none" /><path d="M 91.40352486487194 119.15986991738527 l -25.789425405384158 57.479609752155824 a84.0,84.0 0 0,0 -1.3141280169303222,-0.6032517186637025 l 26.7750214180819 -57.02717096315804" fill="#4dd2ff" stroke="none" /><line stroke="#e1ed5e" stroke-width="0.3" x1="58.666819895761336" x2="56.23545636021788" y1="174.27360380694188" y2="178.64263932499728" /><path d="M 58.180547188652646 175.14741091055294 a86.0,86.0 0 0,1 -31.652253787137756,-30.449443065178592" fill="none" id="id92" stroke="none" /><text fill="#e1ed5e" style="font-size:6.75px; font-family:Arial;" text-anchor="middle"><textPath startOffset="22.20632615414155" xlink:href="#id92">August</textPath></text><path d="M 89.1626897886671 117.98757091392108 l -15.576902409467793 25.854260074287268 a51.18414571696486,51.18414571696486 0 0,0 -0.7507515006914672,-0.4611728897707917 l 16.01963311009157 -25.5822987176881" fill="#ffd914" stroke="none" /><path d="M 88.8546689885994 117.79835938074946 l -16.45702338640435 26.280782174078677 a52.00827519263255,52.00827519263255 0 0,0 -0.7546603759688898,-0.4816599574632399 l 16.906965564420165 -25.993607787791635" fill="#ffe715" stroke="none" /><path d="M 87.65650970185807 116.9893568818739 l -17.787837108186444 24.48285739999407 a51.26247602982643,51.26247602982643 0 0,0 -0.7094117137059832,-0.5248058261608927 l 18.206633792310992 -24.17304162509341" fill="#ffda14" stroke="none" /><path d="M 87.36589467227662 116.77436683061367 l -18.21330408052174 24.181897801166873 a51.27356316649279,51.27356316649279 0 0,0 -0.7004243933448243,-0.5370555571884685 l 18.62685720236005 -23.864802902151038" fill="#ffda14" stroke="none" /><path d="M 87.07902340077011 116.55440617244103 l -18.746118341281715 24.017600743640415 a51.46739401961145,51.46739401961145 0 0,0 -0.6936885831721178,-0.5511081642640787 l 19.15676441717119 -23.691358665371204" fill="#ffde14" stroke="none" /><path d="M 85.97065885151581 115.62618273729859 l -20.29673163004144 22.60693742237521 a51.38142416808523,51.38142416808523 0 0,0 -0.6530345361665044,-0.5965315654886906 l 20.682865715674797 -22.254213090299945" fill="#ffdc14" stroke="none" /><path d="M 85.18274418774928 114.88116024355367 l -21.47286335173358 21.565472343460893 a51.43276947500506,51.43276947500506 0 0,0 -0.6219920946445302,-0.6300747080164834 l 21.840896071433644 -21.192657141463744" fill="#ffdd14" stroke="none" /><line stroke="#e1ed5e" stroke-width="0.3" x1="26.63291911575756" x2="22.317208475507996" y1="142.92168965132927" y2="145.44649492493687" /><path d="M 25.769776987707644 143.4266507060508 a86.0,86.0 0 0,1 -11.730757126820373,-40.83630448921669" fill="none" id="id93" stroke="none" /><text fill="#e1ed5e" style="font-size:6.75px; font-family:Arial;" text-anchor="middle"><textPath startOffset="21.46611528233685" xlink:href="#id93">September</textPath></text><path d="M 79.35854240842038 103.8639653848113 l -30.785705451258366 5.7629118332798654 a52.32045358754876,52.32045358754876 0 0,0 -0.15809137707415838,-0.8866603992829413 l 30.880343270671712 -5.2321326832637105" fill="#ffed16" stroke="none" /><line stroke="#e1ed5e" stroke-width="0.3" x1="15.007084014347285" x2="10.007500721073583" y1="101.09737516637583" y2="101.16192664675087" /><path d="M 14.007167355692545 101.11028546245083 a86.0,86.0 0 0,1 10.666146001902526,-42.60595125391555" fill="none" id="id94" stroke="none" /><text fill="#e1ed5e" style="font-size:6.75px; font-family:Arial;" text-anchor="middle"><textPath startOffset="22.20632615414155" xlink:href="#id94">October</textPath></text><line stroke="#e1ed5e" stroke-width="0.3" x1="26.266209847984243" x2="21.928928074336255" y1="57.71137044288968" y2="55.22380399835378" /><path d="M 25.398753493254645 57.2138571539825 a86.0,86.0 0 0,1 29.58750427330803,-30.4925239686951" fill="none" id="id95" stroke="none" /><text fill="#e1ed5e" style="font-size:6.75px; font-family:Arial;" text-anchor="middle"><textPath startOffset="21.46611528233685" xlink:href="#id95">November</textPath></text><line stroke="#e1ed5e" stroke-width="0.3" x1="56.76296977257108" x2="54.21961505331056" y1="26.818313649435495" y2="22.513508569990535" /><path d="M 56.25429882871898 25.957352633546506 a86.0,86.0 0 0,1 42.26535254187918,-11.944610805530505" fill="none" id="id96" stroke="none" /><text fill="#e1ed5e" style="font-size:6.75px; font-family:Arial;" text-anchor="middle"><textPath startOffset="22.20632615414155" xlink:href="#id96">December</textPath></text></svg>