<?xml version="1.0" encoding="utf-8" ?>
<svg baseProfile="full" height="200mm" version="1.1" viewBox="0,0,200,200" width="200mm" xmlns="http://www.w3.org/2000/svg" xmlns:ev="http://www.w3.org/2001/xml-events" xmlns:xlink="http://www.w3.org/1999/xlink"><defs /><rect fill="#1a1a1a" height="200" width="200" x="0" y="0" /><text alignment-baseline="middle" fill="#e1ed5e" style="dominant-baseline: central; font-size:9.0px; font-family:Arial;" text-anchor="middle" x="100.0" y="100.0">2022</text><line stroke="#e1ed5e" stroke-width="0.3" x1="100.0" x2="100.0" y1="15.0" y2="10.0" /><path d="M 100.0 14.0 a86.0,86.0 0 0,1 42.46469731375804,11.215312516191453" fill="none" id="id85" stroke="none" /><text fill="#e1ed5e" style="font-size:6.75px; font-family:Arial;" text-anchor="middle"><textPath startOffset="22.20632615414155" xlink:href="#id85">January</textPath></text><line stroke="#e1ed5e" stroke-width="0.3" x1="143.23703022742887" x2="145.7803849466894" y1="26.818313649435467" y2="22.513508569990506" /><path d="M 143.74570117128098 25.957352633546478 a86.0,86.0 0 0,1 28.547481713284135,27.462654790039114" fill="none" id="id86" stroke="none" /><text fill="#e1ed5e" style="font-size:6.75px; font-family:Arial;" text-anchor="middle"><textPath startOffset="19.985693538727396" xlink:href="#id86">February</textPath></text><line stroke="#e1ed5e" stroke-width="0.3" x1="172.23445277983987" x2="176.4835382374775" y1="55.19839476539836" y2="52.563006222186495" /><path d="M 173.08426987136738 54.67131705675599 a86.0,86.0 0 0,1 12.851231095245387,41.99856678651699" fill="none" id="id87" stroke="none" /><text fill="#e1ed5e" style="font-size:6.75px; font-family:Arial;" text-anchor="middle"><textPath startOffset="22.20632615414155" xlink:href="#id87">March</textPath></text><line stroke="#e1ed5e" stroke-width="0.3" x1="184.98032266829074" x2="189.97916517819016" y1="98.17113171792111" y2="98.06355123074" /><path d="M 185.9800911702706 98.14961562048488 a86.0,86.0 0 0,1 -9.607161424134198,41.387399972396054" fill="none" id="id88" stroke="none" /><text fill="#e1ed5e" style="font-size:6.75px; font-family:Arial;" text-anchor="middle"><textPath startOffset="21.466115282336823" xlink:href="#id88">April</textPath></text><path d="M 120.9764740272857 100.99374915477107 l 19.267362336241327 0.9127809092892248 a40.2889714703603,40.2889714703603 0 0,0 -0.03878033963829552,0.6924490154003924 l -19.2487956457155 -1.2443016410250405" fill="#ff0000" stroke="none" /><path d="M 120.8583938346157 102.4346265915055 l 31.064351717500575 3.6258830540343068 a52.27524541150899,52.27524541150899 0 0,0 -0.1120146260604063,0.892866781875123 l -30.997335582193323 -4.160067590196825" fill="#ffe615" stroke="none" /><path d="M 120.81339534386255 102.79330883721812 l 30.94278698074453 4.152746771658213 a52.220207748912415,52.220207748912415 0 0,0 -0.12723316598016446,0.8898684665272392 l -30.866719763747767 -4.684760710165862" fill="#ffe515" stroke="none" /><path d="M 120.5718875245553 104.21870165774334 l 30.83468565113354 6.323305983330947 a52.47637269068737,52.47637269068737 0 0,0 -0.18907977066167825,0.8833177406345111 l -30.72127184174742 -6.853137543381627" fill="#ffe915" stroke="none" /><path d="M 120.49622156327973 104.57218783832717 l 30.31470753793617 6.762443345934325 a52.05981540701064,52.05981540701064 0 0,0 -0.20263523091090171,0.8729472713074549 l -30.193811741094716 -7.2832592745903435" fill="#ffe215" stroke="none" /><path d="M 119.9155931802556 106.66101706037122 l 29.910500624405266 10.003937775799182 a52.539131545187,52.539131545187 0 0,0 -0.29424207638065397,0.8552052056250924 l -29.73386771708138 -10.517315684513575" fill="#ffea16" stroke="none" /><path d="M 119.54520255179757 107.68017299344265 l 28.927667302464933 11.366957625069597 a52.08082465463596,52.08082465463596 0 0,0 -0.3350468218171648,0.8315587347603344 l -28.727717866390375 -11.863215727672745" fill="#ffe215" stroke="none" /><path d="M 119.26925614724726 108.34839909993367 l 28.75602367388403 12.458538114924576 a52.33885877778588,52.33885877778588 0 0,0 -0.36527268423216164,0.8235934737711257 l -28.537309904920598 -12.951679925188389" fill="#ffe715" stroke="none" /><line stroke="#e1ed5e" stroke-width="0.3" x1="174.80103733775053" x2="179.2010983576182" y1="140.37084112569926" y2="142.7455964860345" /><path d="M 175.68104954172406 140.8457921977663 a86.0,86.0 0 0,1 -30.038265399797805,32.042727171017184" fill="none" id="id89" stroke="none" /><text fill="#e1ed5e" style="font-size:6.75px; font-family:Arial;" text-anchor="middle"><textPath startOffset="22.206326154141568" xlink:href="#id89">May</textPath></text><path d="M 118.30583269289576 110.29060199501023 l 38.58713081974038 21.691709525425996 a65.26620524774192,65.26620524774192 0 0,0 -0.5589522253578798,0.9745803191347466 l -38.20802659823012 -22.352709690419058" fill="#4aff2c" stroke="none" /><path d="M 118.12598468904814 110.60418214915192 l 26.854170157940295 15.710402314925101 a52.11210690018301,52.11210690018301 0 0,0 -0.4596266097891498,0.7703606356798247 l -26.579762672452915 -16.17032504449103" fill="#ffe315" stroke="none" /><path d="M 117.75023020441432 111.22182372390056 l 30.73544044105701 19.431167412139274 a57.362584700545504,57.362584700545504 0 0,0 -0.5348245289756586,0.8300595458653226 l -30.3964110487043 -19.957348557926053" fill="#c2ff1e" stroke="none" /><path d="M 117.35343817320211 111.8261652097733 l 51.53069846655264 35.11756848170524 a83.35909316625786,83.35909316625786 0 0,0 -0.8182651354799606,1.178771956756513 l -50.91857242391055 -35.99938170064877" fill="#4cdaff" stroke="none" /><path d="M 115.56566222782051 114.09645910891815 l 46.4092602222817 42.02880863168628 a83.61182148267503,83.61182148267503 0 0,0 -0.9752864764857863,1.0584808488068456 l -45.67892733780019 -42.821440735294466" fill="#4cd7ff" stroke="none" /><path d="M 114.81725581225074 114.88116024355365 l 44.18444509997933 44.37500547582264 a83.62113301252522,83.62113301252522 0 0,0 -1.0287392236274255,1.0068378512245293 l -43.41405592397611 -45.12899342996974" fill="#4cd7ff" stroke="none" /><path d="M 113.75828350139079 115.86535959552629 l 40.72373679615462 46.960562215427984 a83.15880583016022,83.15880583016022 0 0,0 -1.0895170671668093,0.928510081207542 l -39.909354252410765 -47.654596686858476" fill="#4cddff" stroke="none" /><path d="M 112.92097659922987 116.55440617244103 l 38.18728179585077 48.925696027315446 a83.06441994180713,83.06441994180713 0 0,0 -1.1347045602693622,0.8700430705298814 l -37.339448507087916 -49.5757784396727" fill="#4bdeff" stroke="none" /><path d="M 111.45004920935366 117.60387380957326 l 33.95040693781753 52.19704025627825 a83.26685428668242,83.26685428668242 0 0,0 -1.2082345613075567,0.7711524626661957 l -33.04689057446305 -52.773707147768256" fill="#4cdbff" stroke="none" /><line stroke="#e1ed5e" stroke-width="0.3" x1="143.8653032363475" x2="146.44561519142675" y1="172.8068346515853" y2="177.08958963109032" /><path d="M 144.38136562736335 173.6633856474863 a86.0,86.0 0 0,1 -40.68145358897372,12.25698825130547" fill="none" id="id90" stroke="none" /><text fill="#e1ed5e" style="font-size:6.75px; font-family:Arial;" text-anchor="middle"><textPath startOffset="21.466115282336833" xlink:href="#id90">June</textPath></text><path d="M 110.21172684928248 118.3499491758327 l 15.290431670217123 27.476121146419153 a52.44414943855662,52.44414943855662 0 0,0 -0.7925988896547346,0.43218811051665745 l -14.815209968693738 -27.735249908695582" fill="#ffe915" stroke="none" /><path d="M 109.57404056367764 118.69057910512821 l 28.612764618540933 55.85824887228456 a83.76013277705925,83.76013277705925 0 0,0 -1.2888933142323729,0.6462778647424021 l -27.6470173966258 -56.342494577936264" fill="#4dd5ff" stroke="none" /><path d="M 108.92500713936063 119.00905698771935 l 26.517268984012002 56.47819317171745 a83.39352416967867,83.39352416967867 0 0,0 -1.3046400778801277,0.5988962711997726 l -25.541160910364454 -56.9262765132513" fill="#4cdaff" stroke="none" /><path d="M 107.93186726928326 119.44442032107085 l 23.72401670975155 58.15777507963786 a83.81047501060884,83.81047501060884 0 0,0 -1.340484388713493,0.5334064027140084 l -22.71941124499619 -58.55752832675794" fill="#4dd4ff" stroke="none" /><path d="M 106.91757812671514 119.82793768551818 l 20.453647008565518 58.626535313162066 a83.09204714596258,83.09204714596258 0 0,0 -1.3545201281080903,0.45952676990725877 l -19.4414571475202 -58.969925069967445" fill="#4bdeff" stroke="none" /><path d="M 106.2309692047433 120.05430185196036 l 18.423568582798815 59.296041018543576 a83.0922568425234,83.0922568425234 0 0,0 -1.3695385487350509,0.41263073023784763 l -17.40015505962352 -59.60438711788715" fill="#4bdeff" stroke="none" /><path d="M 105.53697534728816 120.25689768951611 l 16.39627735709755 59.985405763875356 a83.18590528268959,83.18590528268959 0 0,0 -1.384488996175117,0.3656561273145211 l -15.361297918110935 -60.25875324049346" fill="#4cddff" stroke="none" /><path d="M 104.48393922423573 120.51570834832081 l 13.326646891692459 60.97442164542711 a83.413777424301,83.413777424301 0 0,0 -1.405357461292718,0.29450632004854177 l -12.275097968970362 -61.194783946202186" fill="#4cdaff" stroke="none" /><path d="M 103.41894727170886 120.7198165907248 l 10.25684181512658 62.15944977217439 a84.0,84.0 0 0,0 -1.4286565455659315,0.22312677061157693 l -9.185349405952131 -62.326794850133076" fill="#4dd2ff" stroke="none" /><path d="M 102.34483914955558 120.86867818915974 l 6.92034291024516 61.58990017712332 a82.97747130872149,82.97747130872149 0 0,0 -1.42076161422429,0.14726775045810653 l -5.859148699415267 -61.69989729603718" fill="#4bdfff" stroke="none" /><line stroke="#e1ed5e" stroke-width="0.3" x1="102.19456741930631" x2="102.32365962044197" y1="184.97166512339345" y2="189.96999836594603" /><path d="M 102.22038585953345 185.97133177190398 a86.0,86.0 0 0,1 -42.740103519485714,-10.115201625700543" fill="none" id="id91" stroke="none" /><text fill="#e1ed5e" style="font-size:6.75px; font-family:Arial;" text-anchor="middle"><textPath startOffset="22.20632615414155" xlink:href="#id91">July</textPath></text><line stroke="#e1ed5e" stroke-width="0.3" x1="58.666819895761336" x2="56.23545636021788" y1="174.27360380694188" y2="178.64263932499728" /><path d="M 58.180547188652646 175.14741091055294 a86.0,86.0 0 0,1 -31.652253787137756,-30.449443065178592" fill="none" id="id92" stroke="none" /><text fill="#e1ed5e" style="font-size:6.75px; font-family:Arial;" text-anchor="middle"><textPath startOffset="22.20632615414155" xlink:href="#id92">August</textPath></text><line stroke="#e1ed5e" stroke-width="0.3" x1="26.63291911575756" x2="22.317208475507996" y1="142.92168965132927" y2="145.44649492493687" /><path d="M 25.769776987707644 143.4266507060508 a86.0,86.0 0 0,1 -11.730757126820373,-40.83630448921669" fill="none" id="id93" stroke="none" /><text fill="#e1ed5e" style="font-size:6.75px; font-family:Arial;" text-anchor="middle"><textPath startOffset="21.46611528233685" xlink:href="#id93">September</textPath></text><line stroke="#e1ed5e" stroke-width="0.3" x1="15.007084014347285" x2="10.007500721073583" y1="101.09737516637583" y2="101.16192664675087" /><path d="M 14.007167355692545 101.11028546245083 a86.0,86.0 0 0,1 10.666146001902526,-42.60595125391555" fill="none" id="id94" stroke="none" /><text fill="#e1ed5e" style="font-size:6.75px; font-family:Arial;" text-anchor="middle"><textPath startOffset="22.20632615414155" xlink:href="#id94">October</textPath></text><line stroke="#e1ed5e" stroke-width="0.3" x1="26.266209847984243" x2="21.928928074336255" y1="57.71137044288968" y2="55.22380399835378" /><path d="M 25.398753493254645 57.2138571539825 a86.0,86.0 0 0,1 29.58750427330803,-30.4925239686951" fill="none" id="id95" stroke="none" /><text fill="#e1ed5e" style="font-size:6.75px; font-family:Arial;" text-anchor="middle"><textPath startOffset="21.46611528233685" xlink:href="#id95">November</textPath></text><line stroke="#e1ed5e" stroke-width="0.3" x1="56.76296977257108" x2="54.21961505331056" y1="26.818313649435495" y2="22.513508569990535" /><path d="M 56.25429882871898 25.957352633546506 a86.0,86.0 0 0,1 42.26535254187918,-11.944610805530505" fill="none" id="id96" stroke="none" /><text fill="#e1ed5e" style="font-size:6.75px; font-family:Arial;" text-anchor="middle"><textPath startOffset="22.20632615414155" xlink:href="#id96">December</textPath></text></svg>