<?xml version="1.0" encoding="utf-8" ?>
<svg baseProfile="full" height="200mm" version="1.1" viewBox="0,0,200,200" width="200mm" xmlns="http://www.w3.org/2000/svg" xmlns:ev="http://www.w3.org/2001/xml-events" xmlns:xlink="http://www.w3.org/1999/xlink"><defs /><rect fill="#1a1a1a" height="200" width="200" x="0" y="0" /><text alignment-baseline="middle" fill="#e1ed5e" style="dominant-baseline: central; font-size:9.0px; font-family:Arial;" text-anchor="middle" x="100.0" y="100.0">2018</text><line stroke="#e1ed5e" stroke-width="0.3" x1="100.0" x2="100.0" y1="15.0" y2="10.0" /><path d="M 100.0 14.0 a86.0,86.0 0 0,1 42.46469731375804,11.215312516191453" fill="none" id="id37" stroke="none" /><text fill="#e1ed5e" style="font-size:6.75px; font-family:Arial;" text-anchor="middle"><textPath startOffset="22.20632615414155" xlink:href="#id37">January</textPath></text><line stroke="#e1ed5e" stroke-width="0.3" x1="143.23703022742887" x2="145.7803849466894" y1="26.818313649435467" y2="22.513508569990506" /><path d="M 143.74570117128098 25.957352633546478 a86.0,86.0 0 0,1 28.547481713284135,27.462654790039114" fill="none" id="id38" stroke="none" /><text fill="#e1ed5e" style="font-size:6.75px; font-family:Arial;" text-anchor="middle"><textPath startOffset="19.985693538727396" xlink:href="#id38">February</textPath></text><line stroke="#e1ed5e" stroke-width="0.3" x1="172.23445277983987" x2="176.4835382374775" y1="55.19839476539836" y2="52.563006222186495" /><path d="M 173.08426987136738 54.67131705675599 a86.0,86.0 0 0,1 12.851231095245387,41.99856678651699" fill="none" id="id39" stroke="none" /><text fill="#e1ed5e" style="font-size:6.75px; font-family:Arial;" text-anchor="middle"><textPath startOffset="22.20632615414155" xlink:href="#id39">March</textPath></text><path d="M 118.21658344932153 89.55222093294921 l 13.771966913683844 -7.898652787071397 a36.87626494243256,36.87626494243256 0 0,0 0.31106421677274604,0.5533485321606667 l -13.905888771749023 7.660420744975937" fill="#ff6509" stroke="none" /><path d="M 120.73433829027371 96.67025291283417 l 19.15494182704957 -3.076110308442703 a40.40036729104273,40.40036729104273 0 0,0 0.10435627754413071,0.6875774823573589 l -19.205053998032998 2.745933713693261" fill="#ff9c0e" stroke="none" /><path d="M 120.91429891909075 98.10471618934814 l 31.640881420710368 -2.867342125280995 a52.77053710504224,52.77053710504224 0 0,0 0.07419415938804177,0.9053566714484639 l -31.685550063917905 2.322271536624762" fill="#b2ff20" stroke="none" /><path d="M 120.94382443527127 98.46500227214037 l 31.58663397887641 -2.315021859458267 a52.67135570709406,52.67135570709406 0 0,0 0.05848880409931617,0.9047959116589687 l -31.62180337398014 1.770966883546263" fill="#b3ff20" stroke="none" /><line stroke="#e1ed5e" stroke-width="0.3" x1="184.98032266829074" x2="189.97916517819016" y1="98.17113171792111" y2="98.06355123074" /><path d="M 185.9800911702706 98.14961562048488 a86.0,86.0 0 0,1 -9.607161424134198,41.387399972396054" fill="none" id="id40" stroke="none" /><text fill="#e1ed5e" style="font-size:6.75px; font-family:Arial;" text-anchor="middle"><textPath startOffset="21.466115282336823" xlink:href="#id40">April</textPath></text><path d="M 120.99513854157772 99.54816195383933 l 31.49074453624272 -0.6777148174194133 a52.49803626927638,52.49803626927638 0 0,0 0.011667045790601129,0.9036255540176281 l -31.497744589151036 0.1355530053413225" fill="#b6ff1f" stroke="none" /><path d="M 120.99824983174949 100.27111621757518 l 31.686280794587688 0.40911336263199927 a52.688921791959736,52.688921791959736 0 0,0 -0.01951481575678131,0.9067768062215429 l -31.6745439161459 -0.954479984643657" fill="#b3ff20" stroke="none" /><path d="M 120.89721153311464 102.0752229133903 l 31.428068832176415 3.121002458188698 a52.58265610844089,52.58265610844089 0 0,0 -0.097197032909111,0.899923810020991 l -31.369689497766252 -3.6615225900944797" fill="#b4ff20" stroke="none" /><path d="M 120.5718875245553 104.21870165774334 l 30.81918479781377 6.320127204742035 a52.46054925594777,52.46054925594777 0 0,0 -0.1890227565949995,0.8830513898959482 l -30.705828002494325 -6.849692414054152" fill="#b6ff1f" stroke="none" /><path d="M 120.41448212921028 104.9243191809786 l 30.702815695745212 7.406039657713213 a52.58341835613301,52.58341835613301 0 0,0 -0.21982043749323277,0.8780733774674172 l -30.57078394395692 -7.933440874578027" fill="#b4ff20" stroke="none" /><path d="M 120.13307415673323 105.97154293290107 l 30.39162074988058 9.014265118954226 a52.70027740319265,52.70027740319265 0 0,0 -0.26544183003608623,0.8674792589194293 l -30.23195214733836 -9.536071350425713" fill="#b3ff20" stroke="none" /><path d="M 119.79798401119884 107.00284435728193 l 59.393952033596506 21.00853307184577 a84.0,84.0 0 0,0 -0.49390295597909306,1.3590088119754802 l -59.02352481661219 -22.02778968082738" fill="#4dd2ff" stroke="none" /><line stroke="#e1ed5e" stroke-width="0.3" x1="174.80103733775053" x2="179.2010983576182" y1="140.37084112569926" y2="142.7455964860345" /><path d="M 175.68104954172406 140.8457921977663 a86.0,86.0 0 0,1 -30.038265399797805,32.042727171017184" fill="none" id="id41" stroke="none" /><text fill="#e1ed5e" style="font-size:6.75px; font-family:Arial;" text-anchor="middle"><textPath startOffset="22.206326154141568" xlink:href="#id41">May</textPath></text><path d="M 116.27256486870786 113.27417163493432 l 7.550857551504885 6.159531698801873 a30.74450001342621,30.74450001342621 0 0,0 -0.3380489540177677,0.4072017421142907 l -7.443712597593574 -6.288594698029931" fill="#ff0000" stroke="none" /><path d="M 115.56566222782051 114.09645910891815 l 23.45434841593931 21.240552347376827 a52.64281156341721,52.64281156341721 0 0,0 -0.6140497993172984,0.6664297808506726 l -23.085252208626287 -21.641133383028837" fill="#b4ff20" stroke="none" /><path d="M 111.7513745106137 117.40417183066458 l 17.67850778403185 26.182450989468407 a52.59193532036285,52.59193532036285 0 0,0 -0.7546324168693647,0.5001292170530404 l -17.22520066842252 -26.482878227612765" fill="#b4ff20" stroke="none" /><path d="M 111.1453310114006 117.79835938074945 l 16.840802842290966 26.89365268208164 a52.731391317705445,52.731391317705445 0 0,0 -0.7734459686839115,0.47511368559503797 l -16.375377673674745 -27.17955483450506" fill="#b2ff20" stroke="none" /><line stroke="#e1ed5e" stroke-width="0.3" x1="143.8653032363475" x2="146.44561519142675" y1="172.8068346515853" y2="177.08958963109032" /><path d="M 144.38136562736335 173.6633856474863 a86.0,86.0 0 0,1 -40.68145358897372,12.25698825130547" fill="none" id="id42" stroke="none" /><text fill="#e1ed5e" style="font-size:6.75px; font-family:Arial;" text-anchor="middle"><textPath startOffset="21.466115282336833" xlink:href="#id42">June</textPath></text><path d="M 110.5260780823613 118.17145234162733 l 15.89311414940952 27.43671138161004 a52.707478751927454,52.707478751927454 0 0,0 -0.7889838541972931,0.44800562362694946 l -15.418481528291029 -27.706220171031617" fill="#b3ff20" stroke="none" /><path d="M 109.89434966115114 118.52300852407294 l 15.029041052942649 28.135558684097557 a52.897989551652515,52.897989551652515 0 0,0 -0.8068432043548897,0.422102230753653 l -14.542506946061264 -28.390090333795925" fill="#b0ff20" stroke="none" /><line stroke="#e1ed5e" stroke-width="0.3" x1="102.19456741930631" x2="102.32365962044197" y1="184.97166512339345" y2="189.96999836594603" /><path d="M 102.22038585953345 185.97133177190398 a86.0,86.0 0 0,1 -42.740103519485714,-10.115201625700543" fill="none" id="id43" stroke="none" /><text fill="#e1ed5e" style="font-size:6.75px; font-family:Arial;" text-anchor="middle"><textPath startOffset="22.20632615414155" xlink:href="#id43">July</textPath></text><path d="M 95.86986931433489 120.58985236759428 l -6.044846120548038 30.135242363854186 a51.73553313266807,51.73553313266807 0 0,0 -0.871641589040038,-0.18266096979577182 l 6.5626791710174635 -30.02672541333187" fill="#c0ff1e" stroke="none" /><path d="M 94.46302465271185 120.25689768951611 l -7.475472515900712 27.34884525168714 a49.352107962843206,49.352107962843206 0 0,0 -0.8175266737432948,-0.23104120405308018 l 7.9451303577486225 -27.216115254295538" fill="#e0ff1b" stroke="none" /><line stroke="#e1ed5e" stroke-width="0.3" x1="58.666819895761336" x2="56.23545636021788" y1="174.27360380694188" y2="178.64263932499728" /><path d="M 58.180547188652646 175.14741091055294 a86.0,86.0 0 0,1 -31.652253787137756,-30.449443065178592" fill="none" id="id44" stroke="none" /><text fill="#e1ed5e" style="font-size:6.75px; font-family:Arial;" text-anchor="middle"><textPath startOffset="22.20632615414155" xlink:href="#id44">August</textPath></text><path d="M 83.95833913139862 113.55231037782056 l -20.947624547431563 17.696964913433977 a48.422354773568784,48.422354773568784 0 0,0 -0.5324245434186409,-0.6413396611577036 l 21.24914509074374 -17.33376399516251" fill="#edff1a" stroke="none" /><path d="M 83.50135304334701 112.99209946851258 l -21.829894554523918 17.190267916191107 a48.785780667313674,48.785780667313674 0 0,0 -0.5138610523954446,-0.6642346793880582 l 22.12256242413743 -16.811955242689795" fill="#e8ff1a" stroke="none" /><path d="M 83.06392112726016 112.41649034213515 l -22.49491450902893 16.49188639514929 a48.89271402425785,48.89271402425785 0 0,0 -0.4917680575011329,-0.6830228206192903 l 22.77546235890567 -16.102229969078863" fill="#e6ff1a" stroke="none" /><path d="M 82.6465618267979 111.8261652097733 l -29.42783059289666 20.0547224638309 a56.611642850414924,56.611642850414924 0 0,0 -0.5418459243109632,-0.8099861382244594 l 29.768679622618354 -19.54519941140062" fill="#81ff25" stroke="none" /><path d="M 82.24976979558568 111.22182372390057 l -24.565212113916633 15.530304503546297 a50.062690931408724,50.062690931408724 0 0,0 -0.45422442170512944,-0.7323543959931276 l 24.82890117528972 -15.105153776187905" fill="#d6ff1c" stroke="none" /><line stroke="#e1ed5e" stroke-width="0.3" x1="26.63291911575756" x2="22.317208475507996" y1="142.92168965132927" y2="145.44649492493687" /><path d="M 25.769776987707644 143.4266507060508 a86.0,86.0 0 0,1 -11.730757126820373,-40.83630448921669" fill="none" id="id45" stroke="none" /><text fill="#e1ed5e" style="font-size:6.75px; font-family:Arial;" text-anchor="middle"><textPath startOffset="21.46611528233685" xlink:href="#id45">September</textPath></text><path d="M 81.69416730710424 110.29060199501025 l -24.701215993490784 13.88575908270172 a49.3366260669812,49.3366260669812 0 0,0 -0.40978435543575065,-0.7438776350280376 l 24.936576758378052 -13.45851092927586" fill="#e0ff1b" stroke="none" /><path d="M 81.35079622478065 109.6543875284942 l -15.540761133221395 8.045197654349467 a38.4997274806608,38.4997274806608 0 0,0 -0.2996036513217053,-0.5911464274634988 l 15.676943454329367 -7.776497015183283" fill="#ff7f0b" stroke="none" /><path d="M 81.02952815118164 109.00673069616217 l -25.087528362943477 11.910964239481284 a48.7714808477275,48.7714808477275 0 0,0 -0.35353606473020827,-0.7614852313840439 l 25.288839044513512 -11.477358940818416" fill="#e8ff1a" stroke="none" /><path d="M 79.10278846688536 102.07522291339032 l -27.945864297089376 2.7751979172875045 a49.08332342853053,49.08332342853053 0 0,0 -0.07625539251993786,-0.8414719021981526 l 27.989494285886387 -2.2937446265407857" fill="#e4ff1b" stroke="none" /><line stroke="#e1ed5e" stroke-width="0.3" x1="15.007084014347285" x2="10.007500721073583" y1="101.09737516637583" y2="101.16192664675087" /><path d="M 14.007167355692545 101.11028546245083 a86.0,86.0 0 0,1 10.666146001902526,-42.60595125391555" fill="none" id="id46" stroke="none" /><text fill="#e1ed5e" style="font-size:6.75px; font-family:Arial;" text-anchor="middle"><textPath startOffset="22.20632615414155" xlink:href="#id46">October</textPath></text><path d="M 79.81627453868168 94.20196356495316 l -24.55559820546591 -7.053913478585484 a46.548680956003395,46.548680956003395 0 0,0 0.22785380473836858,-0.7682097573838946 l 24.430538503615832 7.4755526227159175" fill="#fff717" stroke="none" /><line stroke="#e1ed5e" stroke-width="0.3" x1="26.266209847984243" x2="21.928928074336255" y1="57.71137044288968" y2="55.22380399835378" /><path d="M 25.398753493254645 57.2138571539825 a86.0,86.0 0 0,1 29.58750427330803,-30.4925239686951" fill="none" id="id47" stroke="none" /><text fill="#e1ed5e" style="font-size:6.75px; font-family:Arial;" text-anchor="middle"><textPath startOffset="21.46611528233685" xlink:href="#id47">November</textPath></text><line stroke="#e1ed5e" stroke-width="0.3" x1="56.76296977257108" x2="54.21961505331056" y1="26.818313649435495" y2="22.513508569990535" /><path d="M 56.25429882871898 25.957352633546506 a86.0,86.0 0 0,1 42.26535254187918,-11.944610805530505" fill="none" id="id48" stroke="none" /><text fill="#e1ed5e" style="font-size:6.75px; font-family:Arial;" text-anchor="middle"><textPath startOffset="22.20632615414155" xlink:href="#id48">December</textPath></text></svg>