<?xml version="1.0" encoding="utf-8" ?>
<svg baseProfile="full" height="200mm" version="1.1" viewBox="0,0,200,200" width="200mm" xmlns="http://www.w3.org/2000/svg" xmlns:ev="http://www.w3.org/2001/xml-events" xmlns:xlink="http://www.w3.org/1999/xlink"><defs /><rect fill="#1a1a1a" height="200" width="200" x="0" y="0" /><text alignment-baseline="middle" fill="#e1ed5e" style="dominant-baseline: central; font-size:9.0px; font-family:Arial;" text-anchor="middle" x="100.0" y="100.0">2022</text><line stroke="#e1ed5e" stroke-width="0.3" x1="100.0" x2="100.0" y1="15.0" y2="10.0" /><path d="M 100.0 14.0 a86.0,86.0 0 0,1 42.46469731375804,11.215312516191453" fill="none" id="id85" stroke="none" /><text fill="#e1ed5e" style="font-size:6.75px; font-family:Arial;" text-anchor="middle"><textPath startOffset="22.20632615414155" xlink:href="#id85">January</textPath></text><line stroke="#e1ed5e" stroke-width="0.3" x1="143.23703022742887" x2="145.7803849466894" y1="26.818313649435467" y2="22.513508569990506" /><path d="M 143.74570117128098 25.957352633546478 a86.0,86.0 0 0,1 28.547481713284135,27.462654790039114" fill="none" id="id86" stroke="none" /><text fill="#e1ed5e" style="font-size:6.75px; font-family:Arial;" text-anchor="middle"><textPath startOffset="19.985693538727396" xlink:href="#id86">February</textPath></text><line stroke="#e1ed5e" stroke-width="0.3" x1="172.23445277983987" x2="176.4835382374775" y1="55.19839476539836" y2="52.563006222186495" /><path d="M 173.08426987136738 54.67131705675599 a86.0,86.0 0 0,1 12.851231095245387,41.99856678651699" fill="none" id="id87" stroke="none" /><text fill="#e1ed5e" style="font-size:6.75px; font-family:Arial;" text-anchor="middle"><textPath startOffset="22.20632615414155" xlink:href="#id87">March</textPath></text><line stroke="#e1ed5e" stroke-width="0.3" x1="184.98032266829074" x2="189.97916517819016" y1="98.17113171792111" y2="98.06355123074" /><path d="M 185.9800911702706 98.14961562048488 a86.0,86.0 0 0,1 -9.607161424134198,41.387399972396054" fill="none" id="id88" stroke="none" /><text fill="#e1ed5e" style="font-size:6.75px; font-family:Arial;" text-anchor="middle"><textPath startOffset="21.466115282336823" xlink:href="#id88">April</textPath></text><path d="M 120.9764740272857 100.99374915477107 l 19.383932688353237 0.9183033669116017 a40.40567256088514,40.40567256088514 0 0,0 -0.0388926708237675,0.6944547641768168 l -19.36525366664194 -1.2518298474238418" fill="#ff0000" stroke="none" /><path d="M 120.8583938346157 102.4346265915055 l 31.252295575857666 3.647820175314803 a52.46446520747185,52.46446520747185 0 0,0 -0.11242008345273716,0.8960986762250868 l -31.18487398315808 -4.185236605827285" fill="#ffe815" stroke="none" /><path d="M 120.81339534386255 102.79330883721812 l 31.129995354715078 4.177871495268836 a52.40909455898979,52.40909455898979 0 0,0 -0.12769338373673858,0.8930872284448281 l -31.05346791996174 -4.713104195694074" fill="#ffe715" stroke="none" /><path d="M 120.5718875245553 104.21870165774334 l 31.02123999629431 6.3615629067294215 a52.66680933602193,52.66680933602193 0 0,0 -0.1897659407488845,0.8865232988441544 l -30.907140016820982 -6.894600024989745" fill="#ffeb16" stroke="none" /><path d="M 120.49622156327973 104.57218783832717 l 30.498115939677792 6.8033571144209235 a52.24773182002768,52.24773182002768 0 0,0 -0.2033666681133957,0.8760982836323089 l -30.376488705633843 -7.327324055401797" fill="#ffe415" stroke="none" /><path d="M 119.9155931802556 106.66101706037122 l 30.091463515369956 10.064463058330306 a52.72994789074411,52.72994789074411 0 0,0 -0.2953107312303407,0.8583112168445288 l -29.91376195319638 -10.580946978264135" fill="#ffec16" stroke="none" /><path d="M 119.54520255179757 107.68017299344265 l 29.102683908494168 11.435729376473427 a52.26886817666515,52.26886817666515 0 0,0 -0.3362565450663065,0.8345611686560225 l -28.901524749170466 -11.934989912972263" fill="#ffe415" stroke="none" /><path d="M 119.26925614724726 108.34839909993367 l 28.930001810927614 12.533914087489572 a52.528463443892164,52.528463443892164 0 0,0 -0.36659593443189625,0.8265770536436766 l -28.709964791764445 -13.030039477625936" fill="#ffe915" stroke="none" /><line stroke="#e1ed5e" stroke-width="0.3" x1="174.80103733775053" x2="179.2010983576182" y1="140.37084112569926" y2="142.7455964860345" /><path d="M 175.68104954172406 140.8457921977663 a86.0,86.0 0 0,1 -30.038265399797805,32.042727171017184" fill="none" id="id89" stroke="none" /><text fill="#e1ed5e" style="font-size:6.75px; font-family:Arial;" text-anchor="middle"><textPath startOffset="22.206326154141568" xlink:href="#id89">May</textPath></text><path d="M 118.30583269289576 110.29060199501023 l 38.82058858879809 21.822947531602477 a65.53402224533278,65.53402224533278 0 0,0 -0.5612458611870788,0.9785794665340944 l -38.43919073145863 -22.487946843994887" fill="#47ff2c" stroke="none" /><path d="M 118.12598468904814 110.60418214915192 l 27.016641803843587 15.805452540156287 a52.300339684360004,52.300339684360004 0 0,0 -0.4612868150962997,0.7731432352694387 l -26.740574113049057 -16.26815786931183" fill="#ffe515" stroke="none" /><path d="M 117.75023020441432 111.22182372390056 l 30.921394338222758 19.548728808849916 a57.58258364115133,57.58258364115133 0 0,0 -0.5368757062438881,0.833243018536288 l -30.58031376860182 -20.078093427307657" fill="#c0ff1e" stroke="none" /><path d="M 117.35343817320211 111.8261652097733 l 51.84246670758062 35.33003489261227 a83.73637477444649,83.73637477444649 0 0,0 -0.8219685873112184,1.1841070553359294 l -51.22663721310727 -36.21718321013522" fill="#4dd5ff" stroke="none" /><path d="M 115.56566222782051 114.09645910891815 l 46.69004301501451 42.283089053445124 a83.99063213403622,83.99063213403622 0 0,0 -0.979705096949615,1.0632763886321914 l -45.95529151006917 -43.080516696878654" fill="#4dd2ff" stroke="none" /><path d="M 114.81725581225074 114.88116024355365 l 44.45176743675221 44.643480730660954 a84.0,84.0 0 0,0 -1.033400190496823,1.0113995883097213 l -43.67671729387959 -45.402030421893244" fill="#4dd2ff" stroke="none" /><path d="M 113.75828350139079 115.86535959552629 l 40.97012134297508 47.244680465621926 a83.53487567075527,83.53487567075527 0 0,0 -1.0944442003270887,0.9327090909786031 l -40.150811666070936 -47.942913946823474" fill="#4cd8ff" stroke="none" /><line stroke="#e1ed5e" stroke-width="0.3" x1="143.8653032363475" x2="146.44561519142675" y1="172.8068346515853" y2="177.08958963109032" /><path d="M 144.38136562736335 173.6633856474863 a86.0,86.0 0 0,1 -40.68145358897372,12.25698825130547" fill="none" id="id90" stroke="none" /><text fill="#e1ed5e" style="font-size:6.75px; font-family:Arial;" text-anchor="middle"><textPath startOffset="21.466115282336833" xlink:href="#id90">June</textPath></text><line stroke="#e1ed5e" stroke-width="0.3" x1="102.19456741930631" x2="102.32365962044197" y1="184.97166512339345" y2="189.96999836594603" /><path d="M 102.22038585953345 185.97133177190398 a86.0,86.0 0 0,1 -42.740103519485714,-10.115201625700543" fill="none" id="id91" stroke="none" /><text fill="#e1ed5e" style="font-size:6.75px; font-family:Arial;" text-anchor="middle"><textPath startOffset="22.20632615414155" xlink:href="#id91">July</textPath></text><line stroke="#e1ed5e" stroke-width="0.3" x1="58.666819895761336" x2="56.23545636021788" y1="174.27360380694188" y2="178.64263932499728" /><path d="M 58.180547188652646 175.14741091055294 a86.0,86.0 0 0,1 -31.652253787137756,-30.449443065178592" fill="none" id="id92" stroke="none" /><text fill="#e1ed5e" style="font-size:6.75px; font-family:Arial;" text-anchor="middle"><textPath startOffset="22.20632615414155" xlink:href="#id92">August</textPath></text><line stroke="#e1ed5e" stroke-width="0.3" x1="26.63291911575756" x2="22.317208475507996" y1="142.92168965132927" y2="145.44649492493687" /><path d="M 25.769776987707644 143.4266507060508 a86.0,86.0 0 0,1 -11.730757126820373,-40.83630448921669" fill="none" id="id93" stroke="none" /><text fill="#e1ed5e" style="font-size:6.75px; font-family:Arial;" text-anchor="middle"><textPath startOffset="21.46611528233685" xlink:href="#id93">September</textPath></text><line stroke="#e1ed5e" stroke-width="0.3" x1="15.007084014347285" x2="10.007500721073583" y1="101.09737516637583" y2="101.16192664675087" /><path d="M 14.007167355692545 101.11028546245083 a86.0,86.0 0 0,1 10.666146001902526,-42.60595125391555" fill="none" id="id94" stroke="none" /><text fill="#e1ed5e" style="font-size:6.75px; font-family:Arial;" text-anchor="middle"><textPath startOffset="22.20632615414155" xlink:href="#id94">October</textPath></text><line stroke="#e1ed5e" stroke-width="0.3" x1="26.266209847984243" x2="21.928928074336255" y1="57.71137044288968" y2="55.22380399835378" /><path d="M 25.398753493254645 57.2138571539825 a86.0,86.0 0 0,1 29.58750427330803,-30.4925239686951" fill="none" id="id95" stroke="none" /><text fill="#e1ed5e" style="font-size:6.75px; font-family:Arial;" text-anchor="middle"><textPath startOffset="21.46611528233685" xlink:href="#id95">November</textPath></text><line stroke="#e1ed5e" stroke-width="0.3" x1="56.76296977257108" x2="54.21961505331056" y1="26.818313649435495" y2="22.513508569990535" /><path d="M 56.25429882871898 25.957352633546506 a86.0,86.0 0 0,1 42.26535254187918,-11.944610805530505" fill="none" id="id96" stroke="none" /><text fill="#e1ed5e" style="font-size:6.75px; font-family:Arial;" text-anchor="middle"><textPath startOffset="22.20632615414155" xlink:href="#id96">December</textPath></text></svg>