<?xml version="1.0" encoding="utf-8" ?>
<svg baseProfile="full" height="200mm" version="1.1" viewBox="0,0,200,200" width="200mm" xmlns="http://www.w3.org/2000/svg" xmlns:ev="http://www.w3.org/2001/xml-events" xmlns:xlink="http://www.w3.org/1999/xlink"><defs /><rect fill="#1a1a1a" height="200" width="200" x="0" y="0" /><text alignment-baseline="middle" fill="#e1ed5e" style="dominant-baseline: central; font-size:9.0px; font-family:Arial;" text-anchor="middle" x="100.0" y="100.0">2017</text><line stroke="#e1ed5e" stroke-width="0.3" x1="100.0" x2="100.0" y1="15.0" y2="10.0" /><path d="M 100.0 14.0 a86.0,86.0 0 0,1 42.46469731375804,11.215312516191453" fill="none" id="id25" stroke="none" /><text fill="#e1ed5e" style="font-size:6.75px; font-family:Arial;" text-anchor="middle"><textPath startOffset="22.20632615414155" xlink:href="#id25">January</textPath></text><line stroke="#e1ed5e" stroke-width="0.3" x1="143.23703022742887" x2="145.7803849466894" y1="26.818313649435467" y2="22.513508569990506" /><path d="M 143.74570117128098 25.957352633546478 a86.0,86.0 0 0,1 28.547481713284135,27.462654790039114" fill="none" id="id26" stroke="none" /><text fill="#e1ed5e" style="font-size:6.75px; font-family:Arial;" text-anchor="middle"><textPath startOffset="19.985693538727396" xlink:href="#id26">February</textPath></text><path d="M 116.60985879189232 87.15038557335679 l 16.225810251902804 -12.552509212095007 a41.514443834783435,41.514443834783435 0 0,0 0.43239084261342164,0.5689756645944064 l -16.43947703474034 12.271348771619568" fill="#ff0e01" stroke="none" /><path d="M 117.04232023915458 87.72973835380427 l 41.746819049691304 -30.057197931254915 a72.44154010375567,72.44154010375567 0 0,0 0.7198873915059393,1.0182296625609675 l -42.25801906100112 29.334141768362155" fill="#38ff84" stroke="none" /><path d="M 117.65298651832404 88.62581576622439 l 48.418516431815156 -31.197051311963634 a78.59868699909093,78.59868699909093 0 0,0 0.7230046333107689,1.1436196999593844 l -48.94834866137188 30.358983964290044" fill="#43ffe2" stroke="none" /><line stroke="#e1ed5e" stroke-width="0.3" x1="172.23445277983987" x2="176.4835382374775" y1="55.19839476539836" y2="52.563006222186495" /><path d="M 173.08426987136738 54.67131705675599 a86.0,86.0 0 0,1 12.851231095245387,41.99856678651699" fill="none" id="id27" stroke="none" /><text fill="#e1ed5e" style="font-size:6.75px; font-family:Arial;" text-anchor="middle"><textPath startOffset="22.20632615414155" xlink:href="#id27">March</textPath></text><path d="M 118.03404312379186 89.2402003453031 l 43.65878785481336 -26.048502116808383 a71.83910128514242,71.83910128514242 0 0,0 0.6244539492547155,1.0673942189980041 l -44.100701478538404 25.29312848545648" fill="#37ff7a" stroke="none" /><path d="M 118.21658344932153 89.55222093294921 l 31.447148071074466 -18.03592074493285 a57.25213868065692,57.25213868065692 0 0,0 0.48294185175925236,0.8590996661797664 l -31.752947564126153 17.491937568818287" fill="#caff1d" stroke="none" /><path d="M 119.196687751892 91.48605970444005 l 51.21441291751998 -22.71415045592663 a77.02542923905813,77.02542923905813 0 0,0 0.5271080838098985,1.2166381317704609 l -51.597811711172554 21.82921317956957" fill="#41ffcb" stroke="none" /><path d="M 119.85752413597 93.16781622104841 l 23.453396196914248 -8.069380249052635 a45.80275570926006,45.80275570926006 0 0,0 0.2500889486825842,0.7477341246387093 l -23.588822439368606 7.664473021491612" fill="#ff6509" stroke="none" /><path d="M 120.87857604477298 97.74499172005257 l 35.088105338667766 -3.78972052005301 a56.29216793960887,56.29216793960887 0 0,0 0.09575800192292973,0.9642700113129821 l -35.14814046627293 3.1851749780355934" fill="#daff1c" stroke="none" /><line stroke="#e1ed5e" stroke-width="0.3" x1="184.98032266829074" x2="189.97916517819016" y1="98.17113171792111" y2="98.06355123074" /><path d="M 185.9800911702706 98.14961562048488 a86.0,86.0 0 0,1 -9.607161424134198,41.387399972396054" fill="none" id="id28" stroke="none" /><text fill="#e1ed5e" style="font-size:6.75px; font-family:Arial;" text-anchor="middle"><textPath startOffset="21.466115282336823" xlink:href="#id28">April</textPath></text><path d="M 120.92983693683757 101.71520430193887 l 57.86841145562185 4.742327834401586 a79.06240365060756,79.06240365060756 0 0,0 -0.12283061135266211,1.3554255609668637 l -57.77820624799212 -5.73773478391702" fill="#44ffe9" stroke="none" /><path d="M 120.49622156327973 104.57218783832717 l 57.83173522066884 12.900795184563167 a80.25318653901743,80.25318653901743 0 0,0 -0.3123738119032886,1.3456982060971587 l -57.601100842834995 -13.89436204800889" fill="#46fffa" stroke="none" /><path d="M 120.32669344350535 105.2749913415812 l 58.0222486496274 15.057385506231897 a80.94419235124009,80.94419235124009 0 0,0 -0.3615966854014779,1.3456357836476358 l -57.75446388788414 -16.053912223055082" fill="#48fbff" stroke="none" /><path d="M 119.54520255179757 107.68017299344265 l 41.485131776586 16.30133982267902 a65.57297206306941,65.57297206306941 0 0,0 -0.42184462386160554,1.0469837611987 l -41.198384538467 -17.01302295172053" fill="#49ff2c" stroke="none" /><line stroke="#e1ed5e" stroke-width="0.3" x1="174.80103733775053" x2="179.2010983576182" y1="140.37084112569926" y2="142.7455964860345" /><path d="M 175.68104954172406 140.8457921977663 a86.0,86.0 0 0,1 -30.038265399797805,32.042727171017184" fill="none" id="id29" stroke="none" /><text fill="#e1ed5e" style="font-size:6.75px; font-family:Arial;" text-anchor="middle"><textPath startOffset="22.206326154141568" xlink:href="#id29">May</textPath></text><path d="M 117.94076556474637 110.91462005526583 l 51.11450752606568 31.09652299650454 a80.83048238234721,80.83048238234721 0 0,0 -0.733384051739671,1.1824486059700894 l -50.571658834658045 -31.971767933839903" fill="#47fcff" stroke="none" /><path d="M 117.35343817320211 111.8261652097733 l 49.08631133677595 33.45174723378543 a80.40105515598162,80.40105515598162 0 0,0 -0.7892285987171865,1.136942659902491 l -48.50322183089663 -34.29173115587494" fill="#47fffc" stroke="none" /><path d="M 117.14729908036423 112.12312394758627 l 47.949673207269065 33.90037281169482 a79.72313375030146,79.72313375030146 0 0,0 -0.8018636601526791,1.1137184909744282 l -47.35902975474079 -34.72072490812038" fill="#45fff2" stroke="none" /><path d="M 116.498646956653 112.99209946851258 l 37.458324243308034 29.497102142464453 a68.67814058790233,68.67814058790233 0 0,0 -0.7393760676334876,0.9224853286403386 l -36.94503026361969 -30.137515304683042" fill="#32ff46" stroke="none" /><path d="M 115.80600337817218 113.82643327865902 l 45.30064479832531 39.627116849111296 a81.18684913597951,81.18684913597951 0 0,0 -0.929168605465158,1.0439307782888607 l -44.61181734321182 -40.40102179714102" fill="#48f8ff" stroke="none" /><path d="M 114.81725581225074 114.88116024355365 l 15.35249300975631 15.418705832650227 a42.75857373929685,42.75857373929685 0 0,0 -0.5260323600900216,0.5148333794837583 l -15.084810697290493 -15.680689315056556" fill="#ff2703" stroke="none" /><path d="M 114.29624159901734 115.38237550388516 l 24.49121017690048 26.351890381563766 a56.97556813465309,56.97556813465309 0 0,0 -0.7241335621200142,0.661478839955591 l -24.033977065313604 -26.76956198810594" fill="#ceff1d" stroke="none" /><path d="M 112.04921762599082 117.19931262002967 l 36.14765287797247 51.597937860089026 a84.0,84.0 0 0,0 -1.1913724615084669,0.8194368425396235 l -35.25412353184112 -52.21251549199374" fill="#4dd2ff" stroke="none" /><line stroke="#e1ed5e" stroke-width="0.3" x1="143.8653032363475" x2="146.44561519142675" y1="172.8068346515853" y2="177.08958963109032" /><path d="M 144.38136562736335 173.6633856474863 a86.0,86.0 0 0,1 -40.68145358897372,12.25698825130547" fill="none" id="id30" stroke="none" /><text fill="#e1ed5e" style="font-size:6.75px; font-family:Arial;" text-anchor="middle"><textPath startOffset="21.466115282336833" xlink:href="#id30">June</textPath></text><path d="M 110.21172684928248 118.3499491758327 l 30.41095563303143 54.646926860743406 a83.53889060286923,83.53889060286923 0 0,0 -1.2625399142452907,0.6884374266878277 l -29.465792906917493 -55.162304939191" fill="#4cd8ff" stroke="none" /><path d="M 109.89434966115114 118.52300852407294 l 28.594457922283777 53.53109663339766 a81.6895487760736,81.6895487760736 0 0,0 -1.2459955067372357,0.6518459597405025 l -27.668771513020044 -54.01537201208288" fill="#49f1ff" stroke="none" /><line stroke="#e1ed5e" stroke-width="0.3" x1="102.19456741930631" x2="102.32365962044197" y1="184.97166512339345" y2="189.96999836594603" /><path d="M 102.22038585953345 185.97133177190398 a86.0,86.0 0 0,1 -42.740103519485714,-10.115201625700543" fill="none" id="id31" stroke="none" /><text fill="#e1ed5e" style="font-size:6.75px; font-family:Arial;" text-anchor="middle"><textPath startOffset="22.20632615414155" xlink:href="#id31">July</textPath></text><line stroke="#e1ed5e" stroke-width="0.3" x1="58.666819895761336" x2="56.23545636021788" y1="174.27360380694188" y2="178.64263932499728" /><path d="M 58.180547188652646 175.14741091055294 a86.0,86.0 0 0,1 -31.652253787137756,-30.449443065178592" fill="none" id="id32" stroke="none" /><text fill="#e1ed5e" style="font-size:6.75px; font-family:Arial;" text-anchor="middle"><textPath startOffset="22.20632615414155" xlink:href="#id32">August</textPath></text><path d="M 82.6465618267979 111.8261652097733 l -29.306798178242875 19.97224028841717 a56.46517730956006,56.46517730956006 0 0,0 -0.5404440615073363,-0.8078905435402801 l 29.646245345160942 -19.464812830671065" fill="#d7ff1c" stroke="none" /><line stroke="#e1ed5e" stroke-width="0.3" x1="26.63291911575756" x2="22.317208475507996" y1="142.92168965132927" y2="145.44649492493687" /><path d="M 25.769776987707644 143.4266507060508 a86.0,86.0 0 0,1 -11.730757126820373,-40.83630448921669" fill="none" id="id33" stroke="none" /><text fill="#e1ed5e" style="font-size:6.75px; font-family:Arial;" text-anchor="middle"><textPath startOffset="21.46611528233685" xlink:href="#id33">September</textPath></text><path d="M 81.02952815118164 109.00673069616217 l -43.95988360419097 20.871111494374595 a69.66286737857351,69.66286737857351 0 0,0 -0.5049741275590329,-1.0876693461547977 l 44.31263234858983 -20.111322080940973" fill="#33ff56" stroke="none" /><path d="M 80.0844068197444 106.66101706037122 l -46.26976122345587 15.47549531159819 a69.78915616010302,69.78915616010302 0 0,0 -0.3712375970533603,-1.1425518408316284 l 46.529291071525485 -14.676744570788758" fill="#34ff59" stroke="none" /><path d="M 79.0235259727143 100.99374915477108 l -53.292636570046746 2.5247099430589595 a74.35240643948185,74.35240643948185 0 0,0 -0.04956071940635164,-1.2789419497716124 l 53.328199422304294 -1.6069907462733501" fill="#3cffa2" stroke="none" /><line stroke="#e1ed5e" stroke-width="0.3" x1="15.007084014347285" x2="10.007500721073583" y1="101.09737516637583" y2="101.16192664675087" /><path d="M 14.007167355692545 101.11028546245083 a86.0,86.0 0 0,1 10.666146001902526,-42.60595125391555" fill="none" id="id34" stroke="none" /><text fill="#e1ed5e" style="font-size:6.75px; font-family:Arial;" text-anchor="middle"><textPath startOffset="22.20632615414155" xlink:href="#id34">October</textPath></text><path d="M 79.16333360222342 97.38593545837743 l -46.23530999234198 -5.8004520547876774 a67.59773743571515,67.59773743571515 0 0,0 0.15477950812129648,-1.153287116245039 l 46.12861448516285 6.595457513097377" fill="#30ff33" stroke="none" /><path d="M 79.32604984820605 96.31383870115002 l -43.294123183702716 -7.719333759424815 a64.97691685344734,64.97691685344734 0 0,0 0.20580440890838864,-1.0994153817581669 l 43.15483305088446 8.463427218645554" fill="#52ff2b" stroke="none" /><line stroke="#e1ed5e" stroke-width="0.3" x1="26.266209847984243" x2="21.928928074336255" y1="57.71137044288968" y2="55.22380399835378" /><path d="M 25.398753493254645 57.2138571539825 a86.0,86.0 0 0,1 29.58750427330803,-30.4925239686951" fill="none" id="id35" stroke="none" /><text fill="#e1ed5e" style="font-size:6.75px; font-family:Arial;" text-anchor="middle"><textPath startOffset="21.46611528233685" xlink:href="#id35">November</textPath></text><path d="M 82.7489923806493 88.02491185347247 l -16.311615229657136 -11.322992517160392 a40.8564586707714,40.8564586707714 0 0,0 0.4060108249568765,-0.5742735185667303 l 16.11429178489638 11.602092536058908" fill="#ff0000" stroke="none" /><path d="M 88.09926311788651 82.69761687909137 l -15.789119327843084 -22.955670262963398 a48.861426495618815,48.861426495618815 0 0,0 0.6970787620327352,-0.47067069181705 l 15.39163587140381 23.224052867079113" fill="#ffa00e" stroke="none" /><line stroke="#e1ed5e" stroke-width="0.3" x1="56.76296977257108" x2="54.21961505331056" y1="26.818313649435495" y2="22.513508569990535" /><path d="M 56.25429882871898 25.957352633546506 a86.0,86.0 0 0,1 42.26535254187918,-11.944610805530505" fill="none" id="id36" stroke="none" /><text fill="#e1ed5e" style="font-size:6.75px; font-family:Arial;" text-anchor="middle"><textPath startOffset="22.20632615414155" xlink:href="#id36">December</textPath></text><path d="M 89.94658935756843 81.56283822128135 l -29.25381613517309 -53.64919030091705 a82.10663939715982,82.10663939715982 0 0,0 1.2466718421285097,-0.6659289230850425 l 28.325999246516275 54.14479795050384" fill="#4aebff" stroke="none" /><path d="M 91.56875222667455 80.76684994638697 l -24.25666951378041 -55.33370351603719 a81.41692445583001,81.41692445583001 0 0,0 1.2883888755919897,-0.5516208782568416 l 23.30059688039811 55.74304392225682" fill="#48f4ff" stroke="none" /><path d="M 92.57280143429618 80.3572730644239 l -21.155024991640037 -55.94873700359942 a80.81468260130492,80.81468260130492 0 0,0 1.3054175559734642,-0.4807963027369663 l 20.188825109894005 56.30459657414271" fill="#47fdff" stroke="none" /></svg>