<?xml version="1.0" encoding="utf-8" ?>
<svg baseProfile="full" height="200mm" version="1.1" viewBox="0,0,200,200" width="200mm" xmlns="http://www.w3.org/2000/svg" xmlns:ev="http://www.w3.org/2001/xml-events" xmlns:xlink="http://www.w3.org/1999/xlink"><defs /><rect fill="#1a1a1a" height="200" width="200" x="0" y="0" /><text alignment-baseline="middle" fill="#e1ed5e" style="dominant-baseline: central; font-size:9.0px; font-family:Arial;" text-anchor="middle" x="100.0" y="100.0">2019</text><line stroke="#e1ed5e" stroke-width="0.3" x1="100.0" x2="100.0" y1="15.0" y2="10.0" /><path d="M 100.0 14.0 a86.0,86.0 0 0,1 42.46469731375804,11.215312516191453" fill="none" id="id49" stroke="none" /><text fill="#e1ed5e" style="font-size:6.75px; font-family:Arial;" text-anchor="middle"><textPath startOffset="22.20632615414155" xlink:href="#id49">January</textPath></text><line stroke="#e1ed5e" stroke-width="0.3" x1="143.23703022742887" x2="145.7803849466894" y1="26.818313649435467" y2="22.513508569990506" /><path d="M 143.74570117128098 25.957352633546478 a86.0,86.0 0 0,1 28.547481713284135,27.462654790039114" fill="none" id="id50" stroke="none" /><text fill="#e1ed5e" style="font-size:6.75px; font-family:Arial;" text-anchor="middle"><textPath startOffset="19.985693538727396" xlink:href="#id50">February</textPath></text><line stroke="#e1ed5e" stroke-width="0.3" x1="172.23445277983987" x2="176.4835382374775" y1="55.19839476539836" y2="52.563006222186495" /><path d="M 173.08426987136738 54.67131705675599 a86.0,86.0 0 0,1 12.851231095245387,41.99856678651699" fill="none" id="id51" stroke="none" /><text fill="#e1ed5e" style="font-size:6.75px; font-family:Arial;" text-anchor="middle"><textPath startOffset="22.20632615414155" xlink:href="#id51">March</textPath></text><line stroke="#e1ed5e" stroke-width="0.3" x1="184.98032266829074" x2="189.97916517819016" y1="98.17113171792111" y2="98.06355123074" /><path d="M 185.9800911702706 98.14961562048488 a86.0,86.0 0 0,1 -9.607161424134198,41.387399972396054" fill="none" id="id52" stroke="none" /><text fill="#e1ed5e" style="font-size:6.75px; font-family:Arial;" text-anchor="middle"><textPath startOffset="21.466115282336823" xlink:href="#id52">April</textPath></text><path d="M 120.89721153311464 102.0752229133903 l 34.54206758517116 3.430241877727671 a55.71197188864742,55.71197188864742 0 0,0 -0.10298145369311375,0.9534803624681429 l -34.477903829976995 -4.024318562080605" fill="#b0ff20" stroke="none" /><path d="M 120.13307415673323 105.97154293290107 l 33.10275001701099 9.818395908384586 a55.52814731349633,55.52814731349633 0 0,0 -0.27968530276682974,0.9140277519253158 l -32.928837941738024 -10.38675063286196" fill="#b3ff20" stroke="none" /><path d="M 120.02730092923936 106.31721596034902 l 19.369818877548784 6.109826251408321 a41.310584929327945,41.310584929327945 0 0,0 -0.2197482119836846,0.6763154543458887 l -19.26177841454885 -6.442340605732005" fill="#ff6809" stroke="none" /><path d="M 119.67450827220406 107.3425965602758 l 32.54430399252201 12.145650160398754 a55.736847009716904,55.736847009716904 0 0,0 -0.34319491217990206,0.8959736195003295 l -32.3304148007486 -12.704047346732228" fill="#b0ff20" stroke="none" /><line stroke="#e1ed5e" stroke-width="0.3" x1="174.80103733775053" x2="179.2010983576182" y1="140.37084112569926" y2="142.7455964860345" /><path d="M 175.68104954172406 140.8457921977663 a86.0,86.0 0 0,1 -30.038265399797805,32.042727171017184" fill="none" id="id53" stroke="none" /><text fill="#e1ed5e" style="font-size:6.75px; font-family:Arial;" text-anchor="middle"><textPath startOffset="22.206326154141568" xlink:href="#id53">May</textPath></text><path d="M 114.29624159901734 115.38237550388516 l 15.35823510068239 16.52505224952861 a43.55998087892548,43.55998087892548 0 0,0 -0.5536275486571429,0.5057256393158175 l -15.071508002558383 -16.786970655431013" fill="#ff8f0d" stroke="none" /><path d="M 113.48314897796784 116.09983520530334 l 22.385210113627505 26.72952694169602 a55.8649572258178,55.8649572258178 0 0,0 -0.7425513490142309,0.611069207600252 l -21.921788636068584 -27.11089126815345" fill="#aeff20" stroke="none" /><path d="M 112.92097659922987 116.55440617244103 l 17.450267128185136 22.357351059268286 a49.36129350421774,49.36129350421774 0 0,0 -0.6743017633695615,0.5170258384495252 l -17.06283663632208 -22.65441623954518" fill="#ffee16" stroke="none" /><line stroke="#e1ed5e" stroke-width="0.3" x1="143.8653032363475" x2="146.44561519142675" y1="172.8068346515853" y2="177.08958963109032" /><path d="M 144.38136562736335 173.6633856474863 a86.0,86.0 0 0,1 -40.68145358897372,12.25698825130547" fill="none" id="id54" stroke="none" /><text fill="#e1ed5e" style="font-size:6.75px; font-family:Arial;" text-anchor="middle"><textPath startOffset="21.466115282336833" xlink:href="#id54">June</textPath></text><path d="M 110.5260780823613 118.17145234162733 l 17.641758028093246 30.455442447003346 a56.19610207060614,56.19610207060614 0 0,0 -0.8412054276246316,0.4776583959183391 l -17.114903833547416 -30.754604008716314" fill="#a9ff21" stroke="none" /><path d="M 106.91757812671514 119.82793768551818 l 13.097455230764108 37.54139402510416 a60.76052815129594,60.76052815129594 0 0,0 -0.9904841823289655,0.33602601209447713 l -12.449301315497916 -37.76128302409676" fill="#6aff28" stroke="none" /><path d="M 106.57524785965236 119.94407469862006 l 15.934658245923192 48.33308509992451 a71.89204700825968,71.89204700825968 0 0,0 -1.1786141544125013,0.37735503283462013 l -15.10032274641975 -48.60021297941884" fill="#3aff90" stroke="none" /><path d="M 105.88484417918355 120.15858648285463 l 17.654532537550654 60.47575944856389 a84.0,84.0 0 0,0 -1.3914753275815817,0.39324482664592386 l -16.610926041864467 -60.77069306854833" fill="#4dd2ff" stroke="none" /><line stroke="#e1ed5e" stroke-width="0.3" x1="102.19456741930631" x2="102.32365962044197" y1="184.97166512339345" y2="189.96999836594603" /><path d="M 102.22038585953345 185.97133177190398 a86.0,86.0 0 0,1 -42.740103519485714,-10.115201625700543" fill="none" id="id55" stroke="none" /><text fill="#e1ed5e" style="font-size:6.75px; font-family:Arial;" text-anchor="middle"><textPath startOffset="22.20632615414155" xlink:href="#id55">July</textPath></text><line stroke="#e1ed5e" stroke-width="0.3" x1="58.666819895761336" x2="56.23545636021788" y1="174.27360380694188" y2="178.64263932499728" /><path d="M 58.180547188652646 175.14741091055294 a86.0,86.0 0 0,1 -31.652253787137756,-30.449443065178592" fill="none" id="id56" stroke="none" /><text fill="#e1ed5e" style="font-size:6.75px; font-family:Arial;" text-anchor="middle"><textPath startOffset="22.20632615414155" xlink:href="#id56">August</textPath></text><line stroke="#e1ed5e" stroke-width="0.3" x1="26.63291911575756" x2="22.317208475507996" y1="142.92168965132927" y2="145.44649492493687" /><path d="M 25.769776987707644 143.4266507060508 a86.0,86.0 0 0,1 -11.730757126820373,-40.83630448921669" fill="none" id="id57" stroke="none" /><text fill="#e1ed5e" style="font-size:6.75px; font-family:Arial;" text-anchor="middle"><textPath startOffset="21.46611528233685" xlink:href="#id57">September</textPath></text><path d="M 80.32549172779594 107.34259656027581 l -26.040254069187426 9.718315564066907 a48.794612596519805,48.794612596519805 0 0,0 -0.28690242139614613,-0.78943224399527 l 26.2036807515888 -9.26863552306552" fill="#ffe515" stroke="none" /><path d="M 79.97269907076064 106.31721596034903 l -27.69379220709658 8.735458999262395 a50.038842448307705,50.038842448307705 0 0,0 -0.2520366602768929,-0.8236703885284583 l 27.8400556398796 -8.257461638181889" fill="#fff817" stroke="none" /><path d="M 79.58551787078972 104.9243191809786 l -14.168118257183789 3.417590319001748 a35.574481072685884,35.574481072685884 0 0,0 -0.13846847381883434,-0.5965185611548863 l 14.224847296933179 -3.173203100498287" fill="#ff0000" stroke="none" /><line stroke="#e1ed5e" stroke-width="0.3" x1="15.007084014347285" x2="10.007500721073583" y1="101.09737516637583" y2="101.16192664675087" /><path d="M 14.007167355692545 101.11028546245083 a86.0,86.0 0 0,1 10.666146001902526,-42.60595125391555" fill="none" id="id58" stroke="none" /><text fill="#e1ed5e" style="font-size:6.75px; font-family:Arial;" text-anchor="middle"><textPath startOffset="22.20632615414155" xlink:href="#id58">October</textPath></text><path d="M 79.12142395522702 97.74499172005258 l -28.031586608670835 -3.0275752411018106 a49.19461047150584,49.19461047150584 0 0,0 0.09817755995175038,-0.8411253776411188 l 27.975318695715497 3.509644357067791" fill="#ffeb16" stroke="none" /><path d="M 81.26839172434947 90.50648371742162 l -31.660576438032752 -16.046150095984906 a56.494662039402364,56.494662039402364 0 0,0 0.4470895194169556,-0.8636346457777001 l 31.379677485455684 16.58875746402294" fill="#a5ff21" stroke="none" /><line stroke="#e1ed5e" stroke-width="0.3" x1="26.266209847984243" x2="21.928928074336255" y1="57.71137044288968" y2="55.22380399835378" /><path d="M 25.398753493254645 57.2138571539825 a86.0,86.0 0 0,1 29.58750427330803,-30.4925239686951" fill="none" id="id59" stroke="none" /><text fill="#e1ed5e" style="font-size:6.75px; font-family:Arial;" text-anchor="middle"><textPath startOffset="21.46611528233685" xlink:href="#id59">November</textPath></text><line stroke="#e1ed5e" stroke-width="0.3" x1="56.76296977257108" x2="54.21961505331056" y1="26.818313649435495" y2="22.513508569990535" /><path d="M 56.25429882871898 25.957352633546506 a86.0,86.0 0 0,1 42.26535254187918,-11.944610805530505" fill="none" id="id60" stroke="none" /><text fill="#e1ed5e" style="font-size:6.75px; font-family:Arial;" text-anchor="middle"><textPath startOffset="22.20632615414155" xlink:href="#id60">December</textPath></text></svg>