<?xml version="1.0" encoding="utf-8" ?>
<svg baseProfile="full" height="200mm" version="1.1" viewBox="0,0,200,200" width="200mm" xmlns="http://www.w3.org/2000/svg" xmlns:ev="http://www.w3.org/2001/xml-events" xmlns:xlink="http://www.w3.org/1999/xlink"><defs /><rect fill="#1a1a1a" height="200" width="200" x="0" y="0" /><text alignment-baseline="middle" fill="#e1ed5e" style="dominant-baseline: central; font-size:9.0px; font-family:Arial;" text-anchor="middle" x="100.0" y="100.0">2020</text><line stroke="#e1ed5e" stroke-width="0.3" x1="100.0" x2="100.0" y1="15.0" y2="10.0" /><path d="M 100.0 14.0 a86.0,86.0 0 0,1 42.35913384403234,11.155469271406648" fill="none" id="id61" stroke="none" /><text fill="#e1ed5e" style="font-size:6.75px; font-family:Arial;" text-anchor="middle"><textPath startOffset="22.145653131862478" xlink:href="#id61">January</textPath></text><line stroke="#e1ed5e" stroke-width="0.3" x1="143.13028292997686" x2="145.6673583964461" y1="26.7553504044142" y2="22.446841604673864" /><path d="M 143.63769802327073 25.89364864446614 a86.0,86.0 0 0,1 29.32050498858742,28.57503671076992" fill="none" id="id62" stroke="none" /><text fill="#e1ed5e" style="font-size:6.75px; font-family:Arial;" text-anchor="middle"><textPath startOffset="20.669276256404974" xlink:href="#id62">February</textPath></text><line stroke="#e1ed5e" stroke-width="0.3" x1="172.87174338648825" x2="177.1583165268699" y1="56.24261187166439" y2="53.66864786411523" /><path d="M 173.72905801456457 55.72781907015455 a86.0,86.0 0 0,1 12.242430191666344,42.057860355516425" fill="none" id="id63" stroke="none" /><text fill="#e1ed5e" style="font-size:6.75px; font-family:Arial;" text-anchor="middle"><textPath startOffset="22.145653131862474" xlink:href="#id63">March</textPath></text><line stroke="#e1ed5e" stroke-width="0.3" x1="184.99686870605535" x2="189.99668451229388" y1="99.2704041080226" y2="99.22748670261217" /><path d="M 185.99683186730306 99.26182062694052 a86.0,86.0 0 0,1 -10.086455211305974,41.156179273409016" fill="none" id="id64" stroke="none" /><text fill="#e1ed5e" style="font-size:6.75px; font-family:Arial;" text-anchor="middle"><textPath startOffset="21.40746469413373" xlink:href="#id64">April</textPath></text><line stroke="#e1ed5e" stroke-width="0.3" x1="174.33088141563837" x2="178.70328620479359" y1="141.23008692659167" y2="143.65538615756765" /><path d="M 175.20536237346943 141.71514677278685 a86.0,86.0 0 0,1 -30.301960400862466,31.63118572779886" fill="none" id="id65" stroke="none" /><text fill="#e1ed5e" style="font-size:6.75px; font-family:Arial;" text-anchor="middle"><textPath startOffset="22.145653131862474" xlink:href="#id65">May</textPath></text><path d="M 114.65682725009322 115.03919595460226 l 15.508566861545562 15.913155830116736 a43.22035496054479,43.22035496054479 0 0,0 -0.5357832174713073,0.5132682024308055 l -15.233111158208942 -16.17703616285312" fill="#ffd213" stroke="none" /><path d="M 114.13192950727249 115.5334660781643 l 18.285005680738205 20.09842430466574 a48.1714573086356,48.1714573086356 0 0,0 -0.6164454898911897,0.551229358252225 l -17.937295164023638 -20.409349192801354" fill="#e7ff1a" stroke="none" /><line stroke="#e1ed5e" stroke-width="0.3" x1="143.1302829299769" x2="145.6673583964461" y1="173.24464959558577" y2="177.55315839532614" /><path d="M 143.63769802327073 174.10635135553383 a86.0,86.0 0 0,1 -40.685524379131806,11.842963189579606" fill="none" id="id66" stroke="none" /><text fill="#e1ed5e" style="font-size:6.75px; font-family:Arial;" text-anchor="middle"><textPath startOffset="21.407464694133747" xlink:href="#id66">June</textPath></text><path d="M 103.58742460773223 120.69131181640829 l 5.488240355677279 31.65471192842702 a53.12696016546515,53.12696016546515 0 0,0 -0.8999264250123427,0.14808255077360857 l -4.944036427611864 -31.7442604776963" fill="#a6ff21" stroke="none" /><line stroke="#e1ed5e" stroke-width="0.3" x1="101.45913802915013" x2="101.54496967792366" y1="184.9874750549273" y2="189.98673829345242" /><path d="M 101.47630435890484 185.9873277026323 a86.0,86.0 0 0,1 -42.54439059252881,-10.42667462771756" fill="none" id="id67" stroke="none" /><text fill="#e1ed5e" style="font-size:6.75px; font-family:Arial;" text-anchor="middle"><textPath startOffset="22.145653131862474" xlink:href="#id67">July</textPath></text><path d="M 96.05791012581884 120.62667999033965 l -4.005114885486724 20.95645348132512 a42.33574202508296,42.33574202508296 0 0,0 -0.7126587425486436,-0.14255170768186032 l 4.3642701135663255 -20.884612376980396" fill="#ffc512" stroke="none" /><path d="M 92.25597844496254 119.51999308798841 l -10.539259026949109 26.56581750146883 a49.580039194488094,49.580039194488094 0 0,0 -0.7884301382382088,-0.3206476734242711 l 10.993743626377759 -26.380982571465264" fill="#d4ff1c" stroke="none" /><path d="M 91.59046798132341 119.24265499422711 l -25.22859605602977 57.72796498268131 a84.0,84.0 0 0,0 -1.3163463885774596,-0.5887849963605802 l 26.215855847462862 -57.28637623541087" fill="#4dd2ff" stroke="none" /><path d="M 90.93487009805054 118.94263497670748 l -11.818000324715225 24.695075385246145 a48.377214612848384,48.377214612848384 0 0,0 -0.7460221486485806,-0.3649168165506298 l 12.240182722625875 -24.488564818598295" fill="#e4ff1a" stroke="none" /><path d="M 90.6110303473126 118.78422872680471 l -12.574889703344272 25.15820299135275 a49.12584272169252,49.12584272169252 0 0,0 -0.7510938480150222,-0.3835138705520172 l 13.004910773072876 -24.938631169127895" fill="#daff1c" stroke="none" /><line stroke="#e1ed5e" stroke-width="0.3" x1="58.13341422392154" x2="55.670673884152215" y1="173.97424548756322" y2="178.32567169271397" /><path d="M 57.64086615596767 174.84453072859336 a86.0,86.0 0 0,1 -31.369924170532244,-30.572349798747886" fill="none" id="id68" stroke="none" /><text fill="#e1ed5e" style="font-size:6.75px; font-family:Arial;" text-anchor="middle"><textPath startOffset="22.145653131862474" xlink:href="#id68">August</textPath></text><path d="M 89.65649057296885 118.27599006163327 l -13.90364846556248 24.566414616784126 a49.22800325523721,49.22800325523721 0 0,0 -0.7318739718322744,-0.42254763465024897 l 14.323314905255154 -24.324120084857707" fill="#d8ff1c" stroke="none" /><path d="M 88.4268655584334 117.5232005979908 l -15.568324819035668 23.57242803633345 a49.24946196300243,49.24946196300243 0 0,0 -0.7014617563028266,-0.4719747748840787 l 15.9706828634355 -23.30170358739225" fill="#d8ff1c" stroke="none" /><path d="M 88.1277618465304 117.32195027204791 l -16.162440863306763 23.58148423996168 a49.58864973410688,49.58864973410688 0 0,0 -0.6980308706412737,-0.48727975951697927 l 16.564866825121804 -23.30055966463957" fill="#d4ff1c" stroke="none" /><path d="M 87.83215693770417 117.11559508785305 l -16.448566013320296 23.136968008091063 a49.38793075414242,49.38793075414242 0 0,0 -0.6867720780259958,-0.49717002213838896 l 16.84331910172024 -22.85119721457961" fill="#d6ff1c" stroke="none" /><path d="M 86.40962598614128 116.0094264158162 l -18.159336763472698 21.39165304636804 a49.06001303893849,49.06001303893849 0 0,0 -0.6373608704820927,-0.5505371397134748 l 18.523877113717653 -21.076771774189844" fill="#dbff1b" stroke="none" /><path d="M 85.34317274990678 115.03919595460226 l -19.703633901431363 20.217664178274738 a49.23096055303696,49.23096055303696 0 0,0 -0.6001677943495446,-0.5950381859049999 l 20.047793615910873 -19.876445982141078" fill="#d8ff1c" stroke="none" /><path d="M 84.58840730492382 114.26474011684316 l -21.037939262173758 19.47240250287163 a49.66651962887636,49.66651962887636 0 0,0 -0.5737719930070148,-0.6306759303737399 l 21.369108956022654 -19.108388996940217" fill="#d3ff1c" stroke="none" /><path d="M 82.98947788004972 112.3143062007846 l -22.929587795753623 16.599253284737454 a49.30726419303075,49.30726419303075 0 0,0 -0.4904544296532584,-0.6898855765982602 l 23.211157323936842 -16.20319048142969" fill="#d7ff1c" stroke="none" /><path d="M 82.78059297857968 112.02048342749411 l -38.0834978652837 26.585239223463716 a67.44488943063448,67.44488943063448 0 0,0 -0.6545695554913845,-0.9550365435100827 l 38.5342571575904 -25.92756794488358" fill="#36ff6a" stroke="none" /><path d="M 81.99639281039703 110.81064883170646 l -24.23545717545212 14.552695692615309 a49.26903493975409,49.26903493975409 0 0,0 -0.429171512715045,-0.7288270544446931 l 24.481702398296935 -14.134517469877059" fill="#d8ff1c" stroke="none" /><line stroke="#e1ed5e" stroke-width="0.3" x1="26.387840678322732" x2="22.057713659400548" y1="142.50000000000003" y2="145.00000000000006" /><path d="M 25.521815274538298 143.00000000000003 a86.0,86.0 0 0,1 -11.493303480769221,-40.785679425670985" fill="none" id="id69" stroke="none" /><text fill="#e1ed5e" style="font-size:6.75px; font-family:Arial;" text-anchor="middle"><textPath startOffset="21.40746469413373" xlink:href="#id69">September</textPath></text><path d="M 81.81346652052679 110.50000000000001 l -7.540310612181337 4.353400361716291 a29.706800723432575,29.706800723432575 0 0,0 -0.2511874590685908,-0.44382417185673756 l 7.613931436271305 -4.223319419760433" fill="#ff0000" stroke="none" /><path d="M 80.9802524753101 108.90220220490707 l -25.845956796286806 12.097212819526572 a49.536924163554175,49.536924163554175 0 0,0 -0.35387181846809923,-0.7732737870480222 l 26.04981307960996 -11.651750050263862" fill="#d4ff1c" stroke="none" /><path d="M 80.5471966667186 107.91128576633889 l -27.188489617870935 11.057322034100462 a50.35095123274336,50.35095123274336 0 0,0 -0.31874867493318826,-0.8034548828772229 l 27.374296967770245 -10.588966134009674" fill="#caff1d" stroke="none" /><path d="M 79.94057633289273 106.21446072829308 l -27.044309016267636 8.37839606433988 a49.31240312616223,49.31240312616223 0 0,0 -0.24356494865286016,-0.8107484988590034 l 27.184150284924126 -7.912909961890153" fill="#d7ff1c" stroke="none" /><line stroke="#e1ed5e" stroke-width="0.3" x1="15.003131293944662" x2="10.003315487706104" y1="100.72959589197737" y2="100.7725132973878" /><path d="M 14.003168132696942 100.73817937305945 a86.0,86.0 0 0,1 10.791469493833604,-42.453326145846276" fill="none" id="id70" stroke="none" /><text fill="#e1ed5e" style="font-size:6.75px; font-family:Arial;" text-anchor="middle"><textPath startOffset="22.145653131862435" xlink:href="#id70">October</textPath></text><line stroke="#e1ed5e" stroke-width="0.3" x1="26.387840678322718" x2="22.05771365940052" y1="57.5" y2="55.0" /><path d="M 25.521815274538284 57.0 a86.0,86.0 0 0,1 29.574782752854787,-30.346332500585742" fill="none" id="id71" stroke="none" /><text fill="#e1ed5e" style="font-size:6.75px; font-family:Arial;" text-anchor="middle"><textPath startOffset="21.40746469413373" xlink:href="#id71">November</textPath></text><line stroke="#e1ed5e" stroke-width="0.3" x1="56.869717070023135" x2="54.33264160355391" y1="26.7553504044142" y2="22.446841604673864" /><path d="M 56.362301976729285 25.89364864446614 a86.0,86.0 0 0,1 42.16139366436587,-11.88097634709845" fill="none" id="id72" stroke="none" /><text fill="#e1ed5e" style="font-size:6.75px; font-family:Arial;" text-anchor="middle"><textPath startOffset="22.145653131862474" xlink:href="#id72">December</textPath></text><path d="M 92.25597844496254 80.48000691201159 l -7.453494876303439 -18.787676071505484 a41.21215866845749,41.21215866845749 0 0,0 0.6598414698501519,-0.25524085554725723 l 7.129881143959759 18.912856815190782" fill="#ffb510" stroke="none" /><path d="M 93.9579478882505 79.88797359093562 l -5.319468173429149 -17.706779486085306 a39.48855812163234,39.48855812163234 0 0,0 0.6508842390137753,-0.1894629158883748 l 5.014723922033748 17.7954860962762" fill="#ff9b0e" stroke="none" /><path d="M 95.35216902796891 79.52079915486377 l -5.384708754657676 -23.72602031846442 a45.32938816585147,45.32938816585147 0 0,0 0.7603197211273087,-0.16570814443729967 l 4.97662661691125 23.814959921035435" fill="#fff016" stroke="none" /><path d="M 96.41257539226777 79.30868818359171 l -4.765083045648357 -27.483732735757066 a48.89375524239162,48.89375524239162 0 0,0 0.8282194619016897,-0.1362831972814559 l 4.292586080693595 27.56148193153419" fill="#ddff1b" stroke="none" /><path d="M 98.5590905019552 79.04949213459386 l -3.144009923280394 -45.713214269167395 a66.82120423140901,66.82120423140901 0 0,0 1.1450470352372064,-0.06888318623724707 l 2.3588185359107046 45.76044943322933" fill="#35ff62" stroke="none" /></svg>